solid CATIA STL
  facet normal  1.000000e+000  0.000000e+000  0.000000e+000
    outer loop
      vertex  2.500000e-001  1.604399e+000  1.512240e-001
      vertex  2.500000e-001  1.893597e+000  7.122046e-001
      vertex  2.500000e-001  1.604399e+000  7.122046e-001
    endloop
  endfacet
  facet normal  9.999999e-001  0.000000e+000  0.000000e+000
    outer loop
      vertex  2.500000e-001  1.604399e+000 -1.138518e-001
      vertex  2.500000e-001  1.604399e+000 -7.159374e-001
      vertex  2.500000e-001  1.893597e+000 -7.159374e-001
    endloop
  endfacet
  facet normal  1.000000e+000  0.000000e+000  -0.000000e+000
    outer loop
      vertex  2.500000e-001  1.604399e+000 -1.138518e-001
      vertex  2.500000e-001  1.893597e+000 -7.159374e-001
      vertex  2.500000e-001  1.893597e+000  7.122046e-001
    endloop
  endfacet
  facet normal  1.000000e+000  0.000000e+000  0.000000e+000
    outer loop
      vertex  2.500000e-001  1.604399e+000 -1.138518e-001
      vertex  2.500000e-001  1.893597e+000  7.122046e-001
      vertex  2.500000e-001  1.604399e+000  1.512240e-001
    endloop
  endfacet
  facet normal  1.000000e+000  0.000000e+000  0.000000e+000
    outer loop
      vertex  2.500000e-001  1.604399e+000 -1.138518e-001
      vertex  2.500000e-001  1.604399e+000  1.512240e-001
      vertex  2.500000e-001  1.479310e+000 -1.138518e-001
    endloop
  endfacet
  facet normal  1.000000e+000  0.000000e+000  0.000000e+000
    outer loop
      vertex  2.500000e-001  1.354222e+000  1.512240e-001
      vertex  2.500000e-001  1.354222e+000  7.122046e-001
      vertex  2.500000e-001  1.065024e+000  7.122046e-001
    endloop
  endfacet
  facet normal  1.000000e+000  0.000000e+000  0.000000e+000
    outer loop
      vertex  2.500000e-001  1.354222e+000  1.512240e-001
      vertex  2.500000e-001  1.065024e+000  7.122046e-001
      vertex  2.500000e-001  1.354222e+000 -1.138518e-001
    endloop
  endfacet
  facet normal  1.000000e+000  0.000000e+000  0.000000e+000
    outer loop
      vertex  2.500000e-001  1.354222e+000  1.512240e-001
      vertex  2.500000e-001  1.354222e+000 -1.138518e-001
      vertex  2.500000e-001  1.479310e+000  1.512240e-001
    endloop
  endfacet
  facet normal  1.000000e+000  0.000000e+000  0.000000e+000
    outer loop
      vertex  2.500000e-001  1.479310e+000  1.512240e-001
      vertex  2.500000e-001  1.354222e+000 -1.138518e-001
      vertex  2.500000e-001  1.604399e+000  1.512240e-001
    endloop
  endfacet
  facet normal  1.000000e+000  0.000000e+000  0.000000e+000
    outer loop
      vertex  2.500000e-001  1.604399e+000  1.512240e-001
      vertex  2.500000e-001  1.354222e+000 -1.138518e-001
      vertex  2.500000e-001  1.479310e+000 -1.138518e-001
    endloop
  endfacet
  facet normal  1.000000e+000  0.000000e+000  0.000000e+000
    outer loop
      vertex  2.500000e-001  1.065024e+000 -7.159374e-001
      vertex  2.500000e-001  1.354222e+000 -7.159374e-001
      vertex  2.500000e-001  1.065024e+000  7.122046e-001
    endloop
  endfacet
  facet normal  9.999999e-001  0.000000e+000  0.000000e+000
    outer loop
      vertex  2.500000e-001  1.065024e+000  7.122046e-001
      vertex  2.500000e-001  1.354222e+000 -7.159374e-001
      vertex  2.500000e-001  1.354222e+000 -1.138518e-001
    endloop
  endfacet
  facet normal -1.000000e+000  -0.000000e+000  0.000000e+000
    outer loop
      vertex  0.000000e+000  1.604399e+000  7.122046e-001
      vertex  0.000000e+000  1.893597e+000  7.122046e-001
      vertex  0.000000e+000  1.604399e+000  1.512240e-001
    endloop
  endfacet
  facet normal -1.000000e+000  0.000000e+000  0.000000e+000
    outer loop
      vertex  0.000000e+000  1.604399e+000 -1.138518e-001
      vertex  0.000000e+000  1.479310e+000 -1.138518e-001
      vertex  0.000000e+000  1.604399e+000  1.512240e-001
    endloop
  endfacet
  facet normal -1.000000e+000  0.000000e+000  0.000000e+000
    outer loop
      vertex  0.000000e+000  1.604399e+000 -1.138518e-001
      vertex  0.000000e+000  1.604399e+000  1.512240e-001
      vertex  0.000000e+000  1.893597e+000  7.122046e-001
    endloop
  endfacet
  facet normal -1.000000e+000  0.000000e+000  -0.000000e+000
    outer loop
      vertex  0.000000e+000  1.604399e+000 -1.138518e-001
      vertex  0.000000e+000  1.893597e+000  7.122046e-001
      vertex  0.000000e+000  1.893597e+000 -7.159374e-001
    endloop
  endfacet
  facet normal -9.999999e-001  0.000000e+000  0.000000e+000
    outer loop
      vertex  0.000000e+000  1.604399e+000 -1.138518e-001
      vertex  0.000000e+000  1.893597e+000 -7.159374e-001
      vertex  0.000000e+000  1.604399e+000 -7.159374e-001
    endloop
  endfacet
  facet normal -1.000000e+000  -0.000000e+000  0.000000e+000
    outer loop
      vertex  0.000000e+000  1.354222e+000  1.512240e-001
      vertex  0.000000e+000  1.479310e+000  1.512240e-001
      vertex  0.000000e+000  1.354222e+000 -1.138518e-001
    endloop
  endfacet
  facet normal -1.000000e+000  0.000000e+000  0.000000e+000
    outer loop
      vertex  0.000000e+000  1.354222e+000  1.512240e-001
      vertex  0.000000e+000  1.354222e+000 -1.138518e-001
      vertex  0.000000e+000  1.065024e+000  7.122046e-001
    endloop
  endfacet
  facet normal -1.000000e+000  0.000000e+000  0.000000e+000
    outer loop
      vertex  0.000000e+000  1.354222e+000  1.512240e-001
      vertex  0.000000e+000  1.065024e+000  7.122046e-001
      vertex  0.000000e+000  1.354222e+000  7.122046e-001
    endloop
  endfacet
  facet normal -1.000000e+000  -0.000000e+000  0.000000e+000
    outer loop
      vertex  0.000000e+000  1.479310e+000  1.512240e-001
      vertex  0.000000e+000  1.604399e+000  1.512240e-001
      vertex  0.000000e+000  1.354222e+000 -1.138518e-001
    endloop
  endfacet
  facet normal -1.000000e+000  0.000000e+000  0.000000e+000
    outer loop
      vertex  0.000000e+000  1.354222e+000 -1.138518e-001
      vertex  0.000000e+000  1.604399e+000  1.512240e-001
      vertex  0.000000e+000  1.479310e+000 -1.138518e-001
    endloop
  endfacet
  facet normal -1.000000e+000  0.000000e+000  0.000000e+000
    outer loop
      vertex  0.000000e+000  1.065024e+000 -7.159374e-001
      vertex  0.000000e+000  1.065024e+000  7.122046e-001
      vertex  0.000000e+000  1.354222e+000 -7.159374e-001
    endloop
  endfacet
  facet normal -1.000000e+000  0.000000e+000  0.000000e+000
    outer loop
      vertex  0.000000e+000  1.354222e+000 -7.159374e-001
      vertex  0.000000e+000  1.065024e+000  7.122046e-001
      vertex  0.000000e+000  1.354222e+000 -1.138518e-001
    endloop
  endfacet
  facet normal  -0.000000e+000  0.000000e+000  1.000000e+000
    outer loop
      vertex  2.500000e-001  1.604399e+000  1.512240e-001
      vertex  0.000000e+000  1.604399e+000  1.512240e-001
      vertex  2.500000e-001  1.479310e+000  1.512240e-001
    endloop
  endfacet
  facet normal  0.000000e+000  0.000000e+000  1.000000e+000
    outer loop
      vertex  2.500000e-001  1.479310e+000  1.512240e-001
      vertex  0.000000e+000  1.604399e+000  1.512240e-001
      vertex  0.000000e+000  1.479310e+000  1.512240e-001
    endloop
  endfacet
  facet normal  0.000000e+000 -1.000000e+000  -0.000000e+000
    outer loop
      vertex  2.500000e-001  1.604399e+000  1.512240e-001
      vertex  2.500000e-001  1.604399e+000  7.122046e-001
      vertex  0.000000e+000  1.604399e+000  1.512240e-001
    endloop
  endfacet
  facet normal  0.000000e+000 -1.000000e+000  0.000000e+000
    outer loop
      vertex  0.000000e+000  1.604399e+000  1.512240e-001
      vertex  2.500000e-001  1.604399e+000  7.122046e-001
      vertex  0.000000e+000  1.604399e+000  7.122046e-001
    endloop
  endfacet
  facet normal  -0.000000e+000  0.000000e+000  1.000000e+000
    outer loop
      vertex  2.500000e-001  1.893597e+000  7.122046e-001
      vertex  0.000000e+000  1.893597e+000  7.122046e-001
      vertex  2.500000e-001  1.604399e+000  7.122046e-001
    endloop
  endfacet
  facet normal  0.000000e+000  0.000000e+000  1.000000e+000
    outer loop
      vertex  2.500000e-001  1.604399e+000  7.122046e-001
      vertex  0.000000e+000  1.893597e+000  7.122046e-001
      vertex  0.000000e+000  1.604399e+000  7.122046e-001
    endloop
  endfacet
  facet normal  0.000000e+000  1.000000e+000  -0.000000e+000
    outer loop
      vertex  2.500000e-001  1.893597e+000  7.122046e-001
      vertex  2.500000e-001  1.893597e+000 -7.159374e-001
      vertex  0.000000e+000  1.893597e+000  7.122046e-001
    endloop
  endfacet
  facet normal  0.000000e+000  1.000000e+000  0.000000e+000
    outer loop
      vertex  0.000000e+000  1.893597e+000  7.122046e-001
      vertex  2.500000e-001  1.893597e+000 -7.159374e-001
      vertex  0.000000e+000  1.893597e+000 -7.159374e-001
    endloop
  endfacet
  facet normal  0.000000e+000  0.000000e+000 -1.000000e+000
    outer loop
      vertex  2.500000e-001  1.604399e+000 -7.159374e-001
      vertex  0.000000e+000  1.604399e+000 -7.159374e-001
      vertex  2.500000e-001  1.893597e+000 -7.159374e-001
    endloop
  endfacet
  facet normal  -0.000000e+000  0.000000e+000 -1.000000e+000
    outer loop
      vertex  2.500000e-001  1.893597e+000 -7.159374e-001
      vertex  0.000000e+000  1.604399e+000 -7.159374e-001
      vertex  0.000000e+000  1.893597e+000 -7.159374e-001
    endloop
  endfacet
  facet normal  0.000000e+000 -1.000000e+000  -0.000000e+000
    outer loop
      vertex  2.500000e-001  1.604399e+000 -7.159374e-001
      vertex  2.500000e-001  1.604399e+000 -1.138518e-001
      vertex  0.000000e+000  1.604399e+000 -7.159374e-001
    endloop
  endfacet
  facet normal  0.000000e+000 -1.000000e+000  0.000000e+000
    outer loop
      vertex  0.000000e+000  1.604399e+000 -7.159374e-001
      vertex  2.500000e-001  1.604399e+000 -1.138518e-001
      vertex  0.000000e+000  1.604399e+000 -1.138518e-001
    endloop
  endfacet
  facet normal  0.000000e+000  0.000000e+000 -1.000000e+000
    outer loop
      vertex  2.500000e-001  1.479310e+000 -1.138518e-001
      vertex  0.000000e+000  1.479310e+000 -1.138518e-001
      vertex  2.500000e-001  1.604399e+000 -1.138518e-001
    endloop
  endfacet
  facet normal  -0.000000e+000  0.000000e+000 -1.000000e+000
    outer loop
      vertex  2.500000e-001  1.604399e+000 -1.138518e-001
      vertex  0.000000e+000  1.479310e+000 -1.138518e-001
      vertex  0.000000e+000  1.604399e+000 -1.138518e-001
    endloop
  endfacet
  facet normal  0.000000e+000  0.000000e+000 -1.000000e+000
    outer loop
      vertex  2.500000e-001  1.354222e+000 -1.138518e-001
      vertex  0.000000e+000  1.354222e+000 -1.138518e-001
      vertex  2.500000e-001  1.479310e+000 -1.138518e-001
    endloop
  endfacet
  facet normal  -0.000000e+000  0.000000e+000 -1.000000e+000
    outer loop
      vertex  2.500000e-001  1.479310e+000 -1.138518e-001
      vertex  0.000000e+000  1.354222e+000 -1.138518e-001
      vertex  0.000000e+000  1.479310e+000 -1.138518e-001
    endloop
  endfacet
  facet normal  0.000000e+000  1.000000e+000  0.000000e+000
    outer loop
      vertex  2.500000e-001  1.354222e+000 -7.159374e-001
      vertex  0.000000e+000  1.354222e+000 -7.159374e-001
      vertex  2.500000e-001  1.354222e+000 -1.138518e-001
    endloop
  endfacet
  facet normal  0.000000e+000  1.000000e+000  0.000000e+000
    outer loop
      vertex  2.500000e-001  1.354222e+000 -1.138518e-001
      vertex  0.000000e+000  1.354222e+000 -7.159374e-001
      vertex  0.000000e+000  1.354222e+000 -1.138518e-001
    endloop
  endfacet
  facet normal  0.000000e+000  0.000000e+000 -1.000000e+000
    outer loop
      vertex  2.500000e-001  1.065024e+000 -7.159374e-001
      vertex  0.000000e+000  1.065024e+000 -7.159374e-001
      vertex  2.500000e-001  1.354222e+000 -7.159374e-001
    endloop
  endfacet
  facet normal  -0.000000e+000  0.000000e+000 -1.000000e+000
    outer loop
      vertex  2.500000e-001  1.354222e+000 -7.159374e-001
      vertex  0.000000e+000  1.065024e+000 -7.159374e-001
      vertex  0.000000e+000  1.354222e+000 -7.159374e-001
    endloop
  endfacet
  facet normal  0.000000e+000 -1.000000e+000  0.000000e+000
    outer loop
      vertex  2.500000e-001  1.065024e+000  7.122046e-001
      vertex  0.000000e+000  1.065024e+000  7.122046e-001
      vertex  2.500000e-001  1.065024e+000 -7.159374e-001
    endloop
  endfacet
  facet normal  0.000000e+000 -1.000000e+000  0.000000e+000
    outer loop
      vertex  2.500000e-001  1.065024e+000 -7.159374e-001
      vertex  0.000000e+000  1.065024e+000  7.122046e-001
      vertex  0.000000e+000  1.065024e+000 -7.159374e-001
    endloop
  endfacet
  facet normal  -0.000000e+000  0.000000e+000  1.000000e+000
    outer loop
      vertex  2.500000e-001  1.354222e+000  7.122046e-001
      vertex  0.000000e+000  1.354222e+000  7.122046e-001
      vertex  2.500000e-001  1.065024e+000  7.122046e-001
    endloop
  endfacet
  facet normal  0.000000e+000  0.000000e+000  1.000000e+000
    outer loop
      vertex  2.500000e-001  1.065024e+000  7.122046e-001
      vertex  0.000000e+000  1.354222e+000  7.122046e-001
      vertex  0.000000e+000  1.065024e+000  7.122046e-001
    endloop
  endfacet
  facet normal  0.000000e+000  1.000000e+000  0.000000e+000
    outer loop
      vertex  2.500000e-001  1.354222e+000  1.512240e-001
      vertex  0.000000e+000  1.354222e+000  1.512240e-001
      vertex  2.500000e-001  1.354222e+000  7.122046e-001
    endloop
  endfacet
  facet normal  0.000000e+000  1.000000e+000  0.000000e+000
    outer loop
      vertex  2.500000e-001  1.354222e+000  7.122046e-001
      vertex  0.000000e+000  1.354222e+000  1.512240e-001
      vertex  0.000000e+000  1.354222e+000  7.122046e-001
    endloop
  endfacet
  facet normal  -0.000000e+000  0.000000e+000  1.000000e+000
    outer loop
      vertex  2.500000e-001  1.479310e+000  1.512240e-001
      vertex  0.000000e+000  1.479310e+000  1.512240e-001
      vertex  2.500000e-001  1.354222e+000  1.512240e-001
    endloop
  endfacet
  facet normal  0.000000e+000  0.000000e+000  1.000000e+000
    outer loop
      vertex  2.500000e-001  1.354222e+000  1.512240e-001
      vertex  0.000000e+000  1.479310e+000  1.512240e-001
      vertex  0.000000e+000  1.354222e+000  1.512240e-001
    endloop
  endfacet
  facet normal  1.000000e+000  0.000000e+000  0.000000e+000
    outer loop
      vertex  2.500000e-001  2.505919e+000 -3.783346e-001
      vertex  2.500000e-001  2.505919e+000 -1.138518e-001
      vertex  2.500000e-001  2.398742e+000 -3.783346e-001
    endloop
  endfacet
  facet normal  1.000000e+000  0.000000e+000  0.000000e+000
    outer loop
      vertex  2.500000e-001  2.505919e+000 -3.783346e-001
      vertex  2.500000e-001  2.613095e+000 -3.783346e-001
      vertex  2.500000e-001  2.505919e+000 -1.138518e-001
    endloop
  endfacet
  facet normal  1.000000e+000  0.000000e+000  -0.000000e+000
    outer loop
      vertex  2.500000e-001  2.051168e+000 -7.159374e-001
      vertex  2.500000e-001  2.354632e+000 -7.159374e-001
      vertex  2.500000e-001  2.398742e+000 -3.783346e-001
    endloop
  endfacet
  facet normal  1.000000e+000  0.000000e+000  -0.000000e+000
    outer loop
      vertex  2.500000e-001  2.051168e+000 -7.159374e-001
      vertex  2.500000e-001  2.398742e+000 -3.783346e-001
      vertex  2.500000e-001  2.505919e+000 -1.138518e-001
    endloop
  endfacet
  facet normal  1.000000e+000  0.000000e+000  0.000000e+000
    outer loop
      vertex  2.500000e-001  2.051168e+000 -7.159374e-001
      vertex  2.500000e-001  2.505919e+000 -1.138518e-001
      vertex  2.500000e-001  2.433298e+000 -1.138518e-001
    endloop
  endfacet
  facet normal  1.000000e+000  0.000000e+000  -0.000000e+000
    outer loop
      vertex  2.500000e-001  2.051168e+000 -7.159374e-001
      vertex  2.500000e-001  2.433298e+000 -1.138518e-001
      vertex  2.500000e-001  2.505919e+000  4.419615e-001
    endloop
  endfacet
  facet normal  1.000000e+000  0.000000e+000  -0.000000e+000
    outer loop
      vertex  2.500000e-001  2.051168e+000 -7.159374e-001
      vertex  2.500000e-001  2.505919e+000  4.419615e-001
      vertex  2.500000e-001  2.505919e+000  7.122046e-001
    endloop
  endfacet
  facet normal  1.000000e+000  0.000000e+000  0.000000e+000
    outer loop
      vertex  2.500000e-001  2.051168e+000 -7.159374e-001
      vertex  2.500000e-001  2.505919e+000  7.122046e-001
      vertex  2.500000e-001  2.306949e+000  7.122046e-001
    endloop
  endfacet
  facet normal  1.000000e+000  0.000000e+000  0.000000e+000
    outer loop
      vertex  2.500000e-001  2.960669e+000 -7.159374e-001
      vertex  2.500000e-001  2.704888e+000  7.122046e-001
      vertex  2.500000e-001  2.505919e+000  7.122046e-001
    endloop
  endfacet
  facet normal  1.000000e+000  0.000000e+000  0.000000e+000
    outer loop
      vertex  2.500000e-001  2.960669e+000 -7.159374e-001
      vertex  2.500000e-001  2.505919e+000  7.122046e-001
      vertex  2.500000e-001  2.505919e+000  4.419615e-001
    endloop
  endfacet
  facet normal  1.000000e+000  0.000000e+000  0.000000e+000
    outer loop
      vertex  2.500000e-001  2.960669e+000 -7.159374e-001
      vertex  2.500000e-001  2.505919e+000  4.419615e-001
      vertex  2.500000e-001  2.578539e+000 -1.138518e-001
    endloop
  endfacet
  facet normal  1.000000e+000  0.000000e+000  0.000000e+000
    outer loop
      vertex  2.500000e-001  2.960669e+000 -7.159374e-001
      vertex  2.500000e-001  2.578539e+000 -1.138518e-001
      vertex  2.500000e-001  2.505919e+000 -1.138518e-001
    endloop
  endfacet
  facet normal  1.000000e+000  0.000000e+000  0.000000e+000
    outer loop
      vertex  2.500000e-001  2.960669e+000 -7.159374e-001
      vertex  2.500000e-001  2.505919e+000 -1.138518e-001
      vertex  2.500000e-001  2.613095e+000 -3.783346e-001
    endloop
  endfacet
  facet normal  1.000000e+000  0.000000e+000  0.000000e+000
    outer loop
      vertex  2.500000e-001  2.960669e+000 -7.159374e-001
      vertex  2.500000e-001  2.613095e+000 -3.783346e-001
      vertex  2.500000e-001  2.657205e+000 -7.159374e-001
    endloop
  endfacet
  facet normal -1.000000e+000  0.000000e+000  -0.000000e+000
    outer loop
      vertex  0.000000e+000  2.398742e+000 -3.783346e-001
      vertex  0.000000e+000  2.505919e+000 -1.138518e-001
      vertex  0.000000e+000  2.505919e+000 -3.783346e-001
    endloop
  endfacet
  facet normal -1.000000e+000  0.000000e+000  0.000000e+000
    outer loop
      vertex  0.000000e+000  2.505919e+000 -1.138518e-001
      vertex  0.000000e+000  2.613095e+000 -3.783346e-001
      vertex  0.000000e+000  2.505919e+000 -3.783346e-001
    endloop
  endfacet
  facet normal -1.000000e+000  0.000000e+000  -0.000000e+000
    outer loop
      vertex  0.000000e+000  2.051168e+000 -7.159374e-001
      vertex  0.000000e+000  2.306949e+000  7.122046e-001
      vertex  0.000000e+000  2.505919e+000  7.122046e-001
    endloop
  endfacet
  facet normal -1.000000e+000  0.000000e+000  -0.000000e+000
    outer loop
      vertex  0.000000e+000  2.051168e+000 -7.159374e-001
      vertex  0.000000e+000  2.505919e+000  7.122046e-001
      vertex  0.000000e+000  2.505919e+000  4.419615e-001
    endloop
  endfacet
  facet normal -1.000000e+000  0.000000e+000  0.000000e+000
    outer loop
      vertex  0.000000e+000  2.051168e+000 -7.159374e-001
      vertex  0.000000e+000  2.505919e+000  4.419615e-001
      vertex  0.000000e+000  2.433298e+000 -1.138518e-001
    endloop
  endfacet
  facet normal -1.000000e+000  0.000000e+000  -0.000000e+000
    outer loop
      vertex  0.000000e+000  2.051168e+000 -7.159374e-001
      vertex  0.000000e+000  2.433298e+000 -1.138518e-001
      vertex  0.000000e+000  2.505919e+000 -1.138518e-001
    endloop
  endfacet
  facet normal -1.000000e+000  0.000000e+000  0.000000e+000
    outer loop
      vertex  0.000000e+000  2.051168e+000 -7.159374e-001
      vertex  0.000000e+000  2.505919e+000 -1.138518e-001
      vertex  0.000000e+000  2.398742e+000 -3.783346e-001
    endloop
  endfacet
  facet normal -1.000000e+000  0.000000e+000  0.000000e+000
    outer loop
      vertex  0.000000e+000  2.051168e+000 -7.159374e-001
      vertex  0.000000e+000  2.398742e+000 -3.783346e-001
      vertex  0.000000e+000  2.354632e+000 -7.159374e-001
    endloop
  endfacet
  facet normal -1.000000e+000  0.000000e+000  0.000000e+000
    outer loop
      vertex  0.000000e+000  2.960669e+000 -7.159374e-001
      vertex  0.000000e+000  2.657205e+000 -7.159374e-001
      vertex  0.000000e+000  2.613095e+000 -3.783346e-001
    endloop
  endfacet
  facet normal -1.000000e+000  0.000000e+000  0.000000e+000
    outer loop
      vertex  0.000000e+000  2.960669e+000 -7.159374e-001
      vertex  0.000000e+000  2.613095e+000 -3.783346e-001
      vertex  0.000000e+000  2.505919e+000 -1.138518e-001
    endloop
  endfacet
  facet normal -1.000000e+000  0.000000e+000  0.000000e+000
    outer loop
      vertex  0.000000e+000  2.960669e+000 -7.159374e-001
      vertex  0.000000e+000  2.505919e+000 -1.138518e-001
      vertex  0.000000e+000  2.578539e+000 -1.138518e-001
    endloop
  endfacet
  facet normal -1.000000e+000  0.000000e+000  0.000000e+000
    outer loop
      vertex  0.000000e+000  2.960669e+000 -7.159374e-001
      vertex  0.000000e+000  2.578539e+000 -1.138518e-001
      vertex  0.000000e+000  2.505919e+000  4.419615e-001
    endloop
  endfacet
  facet normal -1.000000e+000  0.000000e+000  0.000000e+000
    outer loop
      vertex  0.000000e+000  2.960669e+000 -7.159374e-001
      vertex  0.000000e+000  2.505919e+000  4.419615e-001
      vertex  0.000000e+000  2.505919e+000  7.122046e-001
    endloop
  endfacet
  facet normal -1.000000e+000  0.000000e+000  0.000000e+000
    outer loop
      vertex  0.000000e+000  2.960669e+000 -7.159374e-001
      vertex  0.000000e+000  2.505919e+000  7.122046e-001
      vertex  0.000000e+000  2.704888e+000  7.122046e-001
    endloop
  endfacet
  facet normal  0.000000e+000  9.915722e-001 -1.295550e-001
    outer loop
      vertex  2.500000e-001  2.505919e+000  4.419615e-001
      vertex  2.500000e-001  2.433298e+000 -1.138518e-001
      vertex  0.000000e+000  2.505919e+000  4.419615e-001
    endloop
  endfacet
  facet normal  0.000000e+000  9.915722e-001 -1.295550e-001
    outer loop
      vertex  0.000000e+000  2.505919e+000  4.419615e-001
      vertex  2.500000e-001  2.433298e+000 -1.138518e-001
      vertex  0.000000e+000  2.433298e+000 -1.138518e-001
    endloop
  endfacet
  facet normal  0.000000e+000  0.000000e+000  1.000000e+000
    outer loop
      vertex  2.500000e-001  2.433298e+000 -1.138518e-001
      vertex  2.500000e-001  2.505919e+000 -1.138518e-001
      vertex  0.000000e+000  2.433298e+000 -1.138518e-001
    endloop
  endfacet
  facet normal  0.000000e+000  0.000000e+000  1.000000e+000
    outer loop
      vertex  0.000000e+000  2.433298e+000 -1.138518e-001
      vertex  2.500000e-001  2.505919e+000 -1.138518e-001
      vertex  0.000000e+000  2.505919e+000 -1.138518e-001
    endloop
  endfacet
  facet normal  0.000000e+000  0.000000e+000  1.000000e+000
    outer loop
      vertex  2.500000e-001  2.505919e+000 -1.138518e-001
      vertex  2.500000e-001  2.578539e+000 -1.138518e-001
      vertex  0.000000e+000  2.505919e+000 -1.138518e-001
    endloop
  endfacet
  facet normal  0.000000e+000  0.000000e+000  1.000000e+000
    outer loop
      vertex  0.000000e+000  2.505919e+000 -1.138518e-001
      vertex  2.500000e-001  2.578539e+000 -1.138518e-001
      vertex  0.000000e+000  2.578539e+000 -1.138518e-001
    endloop
  endfacet
  facet normal  0.000000e+000 -9.915722e-001 -1.295550e-001
    outer loop
      vertex  2.500000e-001  2.505919e+000  4.419615e-001
      vertex  0.000000e+000  2.505919e+000  4.419615e-001
      vertex  2.500000e-001  2.578539e+000 -1.138518e-001
    endloop
  endfacet
  facet normal  -0.000000e+000 -9.915722e-001 -1.295550e-001
    outer loop
      vertex  2.500000e-001  2.578539e+000 -1.138518e-001
      vertex  0.000000e+000  2.505919e+000  4.419615e-001
      vertex  0.000000e+000  2.578539e+000 -1.138518e-001
    endloop
  endfacet
  facet normal  0.000000e+000 -9.843374e-001  1.762950e-001
    outer loop
      vertex  2.500000e-001  2.051168e+000 -7.159374e-001
      vertex  2.500000e-001  2.306949e+000  7.122046e-001
      vertex  0.000000e+000  2.051168e+000 -7.159374e-001
    endloop
  endfacet
  facet normal  0.000000e+000 -9.843374e-001  1.762950e-001
    outer loop
      vertex  0.000000e+000  2.051168e+000 -7.159374e-001
      vertex  2.500000e-001  2.306949e+000  7.122046e-001
      vertex  0.000000e+000  2.306949e+000  7.122046e-001
    endloop
  endfacet
  facet normal  -0.000000e+000  0.000000e+000  1.000000e+000
    outer loop
      vertex  2.500000e-001  2.505919e+000  7.122046e-001
      vertex  0.000000e+000  2.505919e+000  7.122046e-001
      vertex  2.500000e-001  2.306949e+000  7.122046e-001
    endloop
  endfacet
  facet normal  0.000000e+000  0.000000e+000  1.000000e+000
    outer loop
      vertex  2.500000e-001  2.306949e+000  7.122046e-001
      vertex  0.000000e+000  2.505919e+000  7.122046e-001
      vertex  0.000000e+000  2.306949e+000  7.122046e-001
    endloop
  endfacet
  facet normal  -0.000000e+000  0.000000e+000  1.000000e+000
    outer loop
      vertex  2.500000e-001  2.704888e+000  7.122046e-001
      vertex  0.000000e+000  2.704888e+000  7.122046e-001
      vertex  2.500000e-001  2.505919e+000  7.122046e-001
    endloop
  endfacet
  facet normal  0.000000e+000  0.000000e+000  1.000000e+000
    outer loop
      vertex  2.500000e-001  2.505919e+000  7.122046e-001
      vertex  0.000000e+000  2.704888e+000  7.122046e-001
      vertex  0.000000e+000  2.505919e+000  7.122046e-001
    endloop
  endfacet
  facet normal  -0.000000e+000  9.843374e-001  1.762949e-001
    outer loop
      vertex  2.500000e-001  2.960669e+000 -7.159374e-001
      vertex  0.000000e+000  2.960669e+000 -7.159374e-001
      vertex  2.500000e-001  2.704888e+000  7.122046e-001
    endloop
  endfacet
  facet normal  0.000000e+000  9.843374e-001  1.762949e-001
    outer loop
      vertex  2.500000e-001  2.704888e+000  7.122046e-001
      vertex  0.000000e+000  2.960669e+000 -7.159374e-001
      vertex  0.000000e+000  2.704888e+000  7.122046e-001
    endloop
  endfacet
  facet normal  0.000000e+000  0.000000e+000 -9.999999e-001
    outer loop
      vertex  2.500000e-001  2.657205e+000 -7.159374e-001
      vertex  0.000000e+000  2.657205e+000 -7.159374e-001
      vertex  2.500000e-001  2.960669e+000 -7.159374e-001
    endloop
  endfacet
  facet normal  -0.000000e+000  0.000000e+000 -9.999999e-001
    outer loop
      vertex  2.500000e-001  2.960669e+000 -7.159374e-001
      vertex  0.000000e+000  2.657205e+000 -7.159374e-001
      vertex  0.000000e+000  2.960669e+000 -7.159374e-001
    endloop
  endfacet
  facet normal  0.000000e+000 -9.915723e-001 -1.295551e-001
    outer loop
      vertex  2.500000e-001  2.613095e+000 -3.783346e-001
      vertex  0.000000e+000  2.613095e+000 -3.783346e-001
      vertex  2.500000e-001  2.657205e+000 -7.159374e-001
    endloop
  endfacet
  facet normal  -0.000000e+000 -9.915723e-001 -1.295551e-001
    outer loop
      vertex  2.500000e-001  2.657205e+000 -7.159374e-001
      vertex  0.000000e+000  2.613095e+000 -3.783346e-001
      vertex  0.000000e+000  2.657205e+000 -7.159374e-001
    endloop
  endfacet
  facet normal  0.000000e+000  0.000000e+000 -1.000000e+000
    outer loop
      vertex  2.500000e-001  2.505919e+000 -3.783346e-001
      vertex  0.000000e+000  2.505919e+000 -3.783346e-001
      vertex  2.500000e-001  2.613095e+000 -3.783346e-001
    endloop
  endfacet
  facet normal  -0.000000e+000  0.000000e+000 -1.000000e+000
    outer loop
      vertex  2.500000e-001  2.613095e+000 -3.783346e-001
      vertex  0.000000e+000  2.505919e+000 -3.783346e-001
      vertex  0.000000e+000  2.613095e+000 -3.783346e-001
    endloop
  endfacet
  facet normal  0.000000e+000  0.000000e+000 -1.000000e+000
    outer loop
      vertex  2.500000e-001  2.398742e+000 -3.783346e-001
      vertex  0.000000e+000  2.398742e+000 -3.783346e-001
      vertex  2.500000e-001  2.505919e+000 -3.783346e-001
    endloop
  endfacet
  facet normal  -0.000000e+000  0.000000e+000 -1.000000e+000
    outer loop
      vertex  2.500000e-001  2.505919e+000 -3.783346e-001
      vertex  0.000000e+000  2.398742e+000 -3.783346e-001
      vertex  0.000000e+000  2.505919e+000 -3.783346e-001
    endloop
  endfacet
  facet normal  0.000000e+000  9.915723e-001 -1.295551e-001
    outer loop
      vertex  2.500000e-001  2.398742e+000 -3.783346e-001
      vertex  2.500000e-001  2.354632e+000 -7.159374e-001
      vertex  0.000000e+000  2.398742e+000 -3.783346e-001
    endloop
  endfacet
  facet normal  0.000000e+000  9.915723e-001 -1.295551e-001
    outer loop
      vertex  0.000000e+000  2.398742e+000 -3.783346e-001
      vertex  2.500000e-001  2.354632e+000 -7.159374e-001
      vertex  0.000000e+000  2.354632e+000 -7.159374e-001
    endloop
  endfacet
  facet normal  0.000000e+000  0.000000e+000 -1.000000e+000
    outer loop
      vertex  2.500000e-001  2.051168e+000 -7.159374e-001
      vertex  0.000000e+000  2.051168e+000 -7.159374e-001
      vertex  2.500000e-001  2.354632e+000 -7.159374e-001
    endloop
  endfacet
  facet normal  -0.000000e+000  0.000000e+000 -1.000000e+000
    outer loop
      vertex  2.500000e-001  2.354632e+000 -7.159374e-001
      vertex  0.000000e+000  2.051168e+000 -7.159374e-001
      vertex  0.000000e+000  2.354632e+000 -7.159374e-001
    endloop
  endfacet
  facet normal  1.000000e+000  0.000000e+000  0.000000e+000
    outer loop
      vertex  2.500000e-001  4.517784e-001 -3.783346e-001
      vertex  2.500000e-001  4.517784e-001 -1.138518e-001
      vertex  2.500000e-001  3.446016e-001 -3.783346e-001
    endloop
  endfacet
  facet normal  1.000000e+000  0.000000e+000  0.000000e+000
    outer loop
      vertex  2.500000e-001  4.517784e-001 -3.783346e-001
      vertex  2.500000e-001  5.589551e-001 -3.783346e-001
      vertex  2.500000e-001  4.517784e-001 -1.138518e-001
    endloop
  endfacet
  facet normal  1.000000e+000  0.000000e+000  -0.000000e+000
    outer loop
      vertex  2.500000e-001 -2.971834e-003 -7.159374e-001
      vertex  2.500000e-001  3.004918e-001 -7.159374e-001
      vertex  2.500000e-001  3.446016e-001 -3.783346e-001
    endloop
  endfacet
  facet normal  1.000000e+000  0.000000e+000  -0.000000e+000
    outer loop
      vertex  2.500000e-001 -2.971834e-003 -7.159374e-001
      vertex  2.500000e-001  3.446016e-001 -3.783346e-001
      vertex  2.500000e-001  4.517784e-001 -1.138518e-001
    endloop
  endfacet
  facet normal  1.000000e+000  0.000000e+000  0.000000e+000
    outer loop
      vertex  2.500000e-001 -2.971834e-003 -7.159374e-001
      vertex  2.500000e-001  4.517784e-001 -1.138518e-001
      vertex  2.500000e-001  3.791579e-001 -1.138518e-001
    endloop
  endfacet
  facet normal  1.000000e+000  0.000000e+000  -0.000000e+000
    outer loop
      vertex  2.500000e-001 -2.971834e-003 -7.159374e-001
      vertex  2.500000e-001  3.791579e-001 -1.138518e-001
      vertex  2.500000e-001  4.517784e-001  4.419615e-001
    endloop
  endfacet
  facet normal  9.999999e-001  0.000000e+000  -0.000000e+000
    outer loop
      vertex  2.500000e-001 -2.971834e-003 -7.159374e-001
      vertex  2.500000e-001  4.517784e-001  4.419615e-001
      vertex  2.500000e-001  4.517784e-001  7.122046e-001
    endloop
  endfacet
  facet normal  1.000000e+000  0.000000e+000  0.000000e+000
    outer loop
      vertex  2.500000e-001 -2.971834e-003 -7.159374e-001
      vertex  2.500000e-001  4.517784e-001  7.122046e-001
      vertex  2.500000e-001  2.528085e-001  7.122046e-001
    endloop
  endfacet
  facet normal  1.000000e+000  0.000000e+000  0.000000e+000
    outer loop
      vertex  2.500000e-001  9.065285e-001 -7.159374e-001
      vertex  2.500000e-001  6.507481e-001  7.122046e-001
      vertex  2.500000e-001  4.517784e-001  7.122046e-001
    endloop
  endfacet
  facet normal  1.000000e+000  0.000000e+000  0.000000e+000
    outer loop
      vertex  2.500000e-001  9.065285e-001 -7.159374e-001
      vertex  2.500000e-001  4.517784e-001  7.122046e-001
      vertex  2.500000e-001  4.517784e-001  4.419615e-001
    endloop
  endfacet
  facet normal  9.999999e-001  0.000000e+000  0.000000e+000
    outer loop
      vertex  2.500000e-001  9.065285e-001 -7.159374e-001
      vertex  2.500000e-001  4.517784e-001  4.419615e-001
      vertex  2.500000e-001  5.243987e-001 -1.138518e-001
    endloop
  endfacet
  facet normal  1.000000e+000  0.000000e+000  0.000000e+000
    outer loop
      vertex  2.500000e-001  9.065285e-001 -7.159374e-001
      vertex  2.500000e-001  5.243987e-001 -1.138518e-001
      vertex  2.500000e-001  4.517784e-001 -1.138518e-001
    endloop
  endfacet
  facet normal  1.000000e+000  0.000000e+000  0.000000e+000
    outer loop
      vertex  2.500000e-001  9.065285e-001 -7.159374e-001
      vertex  2.500000e-001  4.517784e-001 -1.138518e-001
      vertex  2.500000e-001  5.589551e-001 -3.783346e-001
    endloop
  endfacet
  facet normal  1.000000e+000  0.000000e+000  0.000000e+000
    outer loop
      vertex  2.500000e-001  9.065285e-001 -7.159374e-001
      vertex  2.500000e-001  5.589551e-001 -3.783346e-001
      vertex  2.500000e-001  6.030650e-001 -7.159374e-001
    endloop
  endfacet
  facet normal -1.000000e+000  0.000000e+000  -0.000000e+000
    outer loop
      vertex  0.000000e+000  3.446016e-001 -3.783346e-001
      vertex  0.000000e+000  4.517784e-001 -1.138518e-001
      vertex  0.000000e+000  4.517784e-001 -3.783346e-001
    endloop
  endfacet
  facet normal -1.000000e+000  0.000000e+000  0.000000e+000
    outer loop
      vertex  0.000000e+000  4.517784e-001 -1.138518e-001
      vertex  0.000000e+000  5.589551e-001 -3.783346e-001
      vertex  0.000000e+000  4.517784e-001 -3.783346e-001
    endloop
  endfacet
  facet normal -1.000000e+000  0.000000e+000  -0.000000e+000
    outer loop
      vertex  0.000000e+000 -2.971834e-003 -7.159374e-001
      vertex  0.000000e+000  2.528085e-001  7.122046e-001
      vertex  0.000000e+000  4.517784e-001  7.122046e-001
    endloop
  endfacet
  facet normal -9.999999e-001  0.000000e+000  -0.000000e+000
    outer loop
      vertex  0.000000e+000 -2.971834e-003 -7.159374e-001
      vertex  0.000000e+000  4.517784e-001  7.122046e-001
      vertex  0.000000e+000  4.517784e-001  4.419615e-001
    endloop
  endfacet
  facet normal -1.000000e+000  0.000000e+000  0.000000e+000
    outer loop
      vertex  0.000000e+000 -2.971834e-003 -7.159374e-001
      vertex  0.000000e+000  4.517784e-001  4.419615e-001
      vertex  0.000000e+000  3.791579e-001 -1.138518e-001
    endloop
  endfacet
  facet normal -1.000000e+000  0.000000e+000  -0.000000e+000
    outer loop
      vertex  0.000000e+000 -2.971834e-003 -7.159374e-001
      vertex  0.000000e+000  3.791579e-001 -1.138518e-001
      vertex  0.000000e+000  4.517784e-001 -1.138518e-001
    endloop
  endfacet
  facet normal -1.000000e+000  0.000000e+000  0.000000e+000
    outer loop
      vertex  0.000000e+000 -2.971834e-003 -7.159374e-001
      vertex  0.000000e+000  4.517784e-001 -1.138518e-001
      vertex  0.000000e+000  3.446016e-001 -3.783346e-001
    endloop
  endfacet
  facet normal -1.000000e+000  0.000000e+000  0.000000e+000
    outer loop
      vertex  0.000000e+000 -2.971834e-003 -7.159374e-001
      vertex  0.000000e+000  3.446016e-001 -3.783346e-001
      vertex  0.000000e+000  3.004918e-001 -7.159374e-001
    endloop
  endfacet
  facet normal -1.000000e+000  0.000000e+000  0.000000e+000
    outer loop
      vertex  0.000000e+000  9.065285e-001 -7.159374e-001
      vertex  0.000000e+000  6.030650e-001 -7.159374e-001
      vertex  0.000000e+000  5.589551e-001 -3.783346e-001
    endloop
  endfacet
  facet normal -1.000000e+000  0.000000e+000  0.000000e+000
    outer loop
      vertex  0.000000e+000  9.065285e-001 -7.159374e-001
      vertex  0.000000e+000  5.589551e-001 -3.783346e-001
      vertex  0.000000e+000  4.517784e-001 -1.138518e-001
    endloop
  endfacet
  facet normal -1.000000e+000  0.000000e+000  0.000000e+000
    outer loop
      vertex  0.000000e+000  9.065285e-001 -7.159374e-001
      vertex  0.000000e+000  4.517784e-001 -1.138518e-001
      vertex  0.000000e+000  5.243987e-001 -1.138518e-001
    endloop
  endfacet
  facet normal -9.999999e-001  0.000000e+000  0.000000e+000
    outer loop
      vertex  0.000000e+000  9.065285e-001 -7.159374e-001
      vertex  0.000000e+000  5.243987e-001 -1.138518e-001
      vertex  0.000000e+000  4.517784e-001  4.419615e-001
    endloop
  endfacet
  facet normal -1.000000e+000  0.000000e+000  0.000000e+000
    outer loop
      vertex  0.000000e+000  9.065285e-001 -7.159374e-001
      vertex  0.000000e+000  4.517784e-001  4.419615e-001
      vertex  0.000000e+000  4.517784e-001  7.122046e-001
    endloop
  endfacet
  facet normal -1.000000e+000  0.000000e+000  0.000000e+000
    outer loop
      vertex  0.000000e+000  9.065285e-001 -7.159374e-001
      vertex  0.000000e+000  4.517784e-001  7.122046e-001
      vertex  0.000000e+000  6.507481e-001  7.122046e-001
    endloop
  endfacet
  facet normal  0.000000e+000  9.915722e-001 -1.295550e-001
    outer loop
      vertex  2.500000e-001  4.517784e-001  4.419615e-001
      vertex  2.500000e-001  3.791579e-001 -1.138518e-001
      vertex  0.000000e+000  4.517784e-001  4.419615e-001
    endloop
  endfacet
  facet normal  0.000000e+000  9.915722e-001 -1.295550e-001
    outer loop
      vertex  0.000000e+000  4.517784e-001  4.419615e-001
      vertex  2.500000e-001  3.791579e-001 -1.138518e-001
      vertex  0.000000e+000  3.791579e-001 -1.138518e-001
    endloop
  endfacet
  facet normal  0.000000e+000  0.000000e+000  1.000000e+000
    outer loop
      vertex  2.500000e-001  3.791579e-001 -1.138518e-001
      vertex  2.500000e-001  4.517784e-001 -1.138518e-001
      vertex  0.000000e+000  3.791579e-001 -1.138518e-001
    endloop
  endfacet
  facet normal  0.000000e+000  0.000000e+000  1.000000e+000
    outer loop
      vertex  0.000000e+000  3.791579e-001 -1.138518e-001
      vertex  2.500000e-001  4.517784e-001 -1.138518e-001
      vertex  0.000000e+000  4.517784e-001 -1.138518e-001
    endloop
  endfacet
  facet normal  0.000000e+000  0.000000e+000  1.000000e+000
    outer loop
      vertex  2.500000e-001  4.517784e-001 -1.138518e-001
      vertex  2.500000e-001  5.243987e-001 -1.138518e-001
      vertex  0.000000e+000  4.517784e-001 -1.138518e-001
    endloop
  endfacet
  facet normal  0.000000e+000  0.000000e+000  1.000000e+000
    outer loop
      vertex  0.000000e+000  4.517784e-001 -1.138518e-001
      vertex  2.500000e-001  5.243987e-001 -1.138518e-001
      vertex  0.000000e+000  5.243987e-001 -1.138518e-001
    endloop
  endfacet
  facet normal  0.000000e+000 -9.915722e-001 -1.295550e-001
    outer loop
      vertex  2.500000e-001  4.517784e-001  4.419615e-001
      vertex  0.000000e+000  4.517784e-001  4.419615e-001
      vertex  2.500000e-001  5.243987e-001 -1.138518e-001
    endloop
  endfacet
  facet normal  -0.000000e+000 -9.915722e-001 -1.295550e-001
    outer loop
      vertex  2.500000e-001  5.243987e-001 -1.138518e-001
      vertex  0.000000e+000  4.517784e-001  4.419615e-001
      vertex  0.000000e+000  5.243987e-001 -1.138518e-001
    endloop
  endfacet
  facet normal  0.000000e+000 -9.843374e-001  1.762949e-001
    outer loop
      vertex  2.500000e-001 -2.971834e-003 -7.159374e-001
      vertex  2.500000e-001  2.528085e-001  7.122046e-001
      vertex  0.000000e+000 -2.971834e-003 -7.159374e-001
    endloop
  endfacet
  facet normal  0.000000e+000 -9.843374e-001  1.762949e-001
    outer loop
      vertex  0.000000e+000 -2.971834e-003 -7.159374e-001
      vertex  2.500000e-001  2.528085e-001  7.122046e-001
      vertex  0.000000e+000  2.528085e-001  7.122046e-001
    endloop
  endfacet
  facet normal  -0.000000e+000  0.000000e+000  1.000000e+000
    outer loop
      vertex  2.500000e-001  4.517784e-001  7.122046e-001
      vertex  0.000000e+000  4.517784e-001  7.122046e-001
      vertex  2.500000e-001  2.528085e-001  7.122046e-001
    endloop
  endfacet
  facet normal  0.000000e+000  0.000000e+000  1.000000e+000
    outer loop
      vertex  2.500000e-001  2.528085e-001  7.122046e-001
      vertex  0.000000e+000  4.517784e-001  7.122046e-001
      vertex  0.000000e+000  2.528085e-001  7.122046e-001
    endloop
  endfacet
  facet normal  -0.000000e+000  0.000000e+000  1.000000e+000
    outer loop
      vertex  2.500000e-001  6.507481e-001  7.122046e-001
      vertex  0.000000e+000  6.507481e-001  7.122046e-001
      vertex  2.500000e-001  4.517784e-001  7.122046e-001
    endloop
  endfacet
  facet normal  0.000000e+000  0.000000e+000  1.000000e+000
    outer loop
      vertex  2.500000e-001  4.517784e-001  7.122046e-001
      vertex  0.000000e+000  6.507481e-001  7.122046e-001
      vertex  0.000000e+000  4.517784e-001  7.122046e-001
    endloop
  endfacet
  facet normal  -0.000000e+000  9.843374e-001  1.762949e-001
    outer loop
      vertex  2.500000e-001  9.065285e-001 -7.159374e-001
      vertex  0.000000e+000  9.065285e-001 -7.159374e-001
      vertex  2.500000e-001  6.507481e-001  7.122046e-001
    endloop
  endfacet
  facet normal  0.000000e+000  9.843374e-001  1.762949e-001
    outer loop
      vertex  2.500000e-001  6.507481e-001  7.122046e-001
      vertex  0.000000e+000  9.065285e-001 -7.159374e-001
      vertex  0.000000e+000  6.507481e-001  7.122046e-001
    endloop
  endfacet
  facet normal  0.000000e+000  0.000000e+000 -1.000000e+000
    outer loop
      vertex  2.500000e-001  6.030650e-001 -7.159374e-001
      vertex  0.000000e+000  6.030650e-001 -7.159374e-001
      vertex  2.500000e-001  9.065285e-001 -7.159374e-001
    endloop
  endfacet
  facet normal  -0.000000e+000  0.000000e+000 -1.000000e+000
    outer loop
      vertex  2.500000e-001  9.065285e-001 -7.159374e-001
      vertex  0.000000e+000  6.030650e-001 -7.159374e-001
      vertex  0.000000e+000  9.065285e-001 -7.159374e-001
    endloop
  endfacet
  facet normal  0.000000e+000 -9.915723e-001 -1.295550e-001
    outer loop
      vertex  2.500000e-001  5.589551e-001 -3.783346e-001
      vertex  0.000000e+000  5.589551e-001 -3.783346e-001
      vertex  2.500000e-001  6.030650e-001 -7.159374e-001
    endloop
  endfacet
  facet normal  -0.000000e+000 -9.915723e-001 -1.295550e-001
    outer loop
      vertex  2.500000e-001  6.030650e-001 -7.159374e-001
      vertex  0.000000e+000  5.589551e-001 -3.783346e-001
      vertex  0.000000e+000  6.030650e-001 -7.159374e-001
    endloop
  endfacet
  facet normal  0.000000e+000  0.000000e+000 -1.000000e+000
    outer loop
      vertex  2.500000e-001  4.517784e-001 -3.783346e-001
      vertex  0.000000e+000  4.517784e-001 -3.783346e-001
      vertex  2.500000e-001  5.589551e-001 -3.783346e-001
    endloop
  endfacet
  facet normal  -0.000000e+000  0.000000e+000 -1.000000e+000
    outer loop
      vertex  2.500000e-001  5.589551e-001 -3.783346e-001
      vertex  0.000000e+000  4.517784e-001 -3.783346e-001
      vertex  0.000000e+000  5.589551e-001 -3.783346e-001
    endloop
  endfacet
  facet normal  0.000000e+000  0.000000e+000 -1.000000e+000
    outer loop
      vertex  2.500000e-001  3.446016e-001 -3.783346e-001
      vertex  0.000000e+000  3.446016e-001 -3.783346e-001
      vertex  2.500000e-001  4.517784e-001 -3.783346e-001
    endloop
  endfacet
  facet normal  -0.000000e+000  0.000000e+000 -1.000000e+000
    outer loop
      vertex  2.500000e-001  4.517784e-001 -3.783346e-001
      vertex  0.000000e+000  3.446016e-001 -3.783346e-001
      vertex  0.000000e+000  4.517784e-001 -3.783346e-001
    endloop
  endfacet
  facet normal  0.000000e+000  9.915723e-001 -1.295550e-001
    outer loop
      vertex  2.500000e-001  3.446016e-001 -3.783346e-001
      vertex  2.500000e-001  3.004918e-001 -7.159374e-001
      vertex  0.000000e+000  3.446016e-001 -3.783346e-001
    endloop
  endfacet
  facet normal  0.000000e+000  9.915723e-001 -1.295550e-001
    outer loop
      vertex  0.000000e+000  3.446016e-001 -3.783346e-001
      vertex  2.500000e-001  3.004918e-001 -7.159374e-001
      vertex  0.000000e+000  3.004918e-001 -7.159374e-001
    endloop
  endfacet
  facet normal  0.000000e+000  0.000000e+000 -1.000000e+000
    outer loop
      vertex  2.500000e-001 -2.971834e-003 -7.159374e-001
      vertex  0.000000e+000 -2.971834e-003 -7.159374e-001
      vertex  2.500000e-001  3.004918e-001 -7.159374e-001
    endloop
  endfacet
  facet normal  -0.000000e+000  0.000000e+000 -1.000000e+000
    outer loop
      vertex  2.500000e-001  3.004918e-001 -7.159374e-001
      vertex  0.000000e+000 -2.971834e-003 -7.159374e-001
      vertex  0.000000e+000  3.004918e-001 -7.159374e-001
    endloop
  endfacet
  facet normal  1.000000e+000  0.000000e+000  0.000000e+000
    outer loop
      vertex  2.500000e-001 -1.194227e+000 -7.159374e-001
      vertex  2.500000e-001 -9.195544e-001 -7.159374e-001
      vertex  2.500000e-001 -1.194227e+000  7.122046e-001
    endloop
  endfacet
  facet normal  1.000000e+000  0.000000e+000  0.000000e+000
    outer loop
      vertex  2.500000e-001 -1.194227e+000  7.122046e-001
      vertex  2.500000e-001 -9.195544e-001 -7.159374e-001
      vertex  2.500000e-001 -9.195544e-001  1.694175e-001
    endloop
  endfacet
  facet normal  1.000000e+000  0.000000e+000  -0.000000e+000
    outer loop
      vertex  2.500000e-001 -1.194227e+000  7.122046e-001
      vertex  2.500000e-001 -9.195544e-001  1.694175e-001
      vertex  2.500000e-001 -7.924108e-001  7.122046e-001
    endloop
  endfacet
  facet normal  1.000000e+000  0.000000e+000  0.000000e+000
    outer loop
      vertex  2.500000e-001 -7.924108e-001  7.122046e-001
      vertex  2.500000e-001 -9.195544e-001  1.694175e-001
      vertex  2.500000e-001 -6.769508e-001  6.753711e-002
    endloop
  endfacet
  facet normal  1.000000e+000  0.000000e+000  -0.000000e+000
    outer loop
      vertex  2.500000e-001 -6.769508e-001  6.753711e-002
      vertex  2.500000e-001 -5.929143e-001 -7.159374e-001
      vertex  2.500000e-001 -5.614908e-001  7.122046e-001
    endloop
  endfacet
  facet normal  1.000000e+000  0.000000e+000  0.000000e+000
    outer loop
      vertex  2.500000e-001 -5.614908e-001  7.122046e-001
      vertex  2.500000e-001 -5.929143e-001 -7.159374e-001
      vertex  2.500000e-001 -4.343472e-001  1.694175e-001
    endloop
  endfacet
  facet normal  1.000000e+000  0.000000e+000  -0.000000e+000
    outer loop
      vertex  2.500000e-001 -5.614908e-001  7.122046e-001
      vertex  2.500000e-001 -4.343472e-001  1.694175e-001
      vertex  2.500000e-001 -1.596741e-001  7.122046e-001
    endloop
  endfacet
  facet normal  1.000000e+000  0.000000e+000  -0.000000e+000
    outer loop
      vertex  2.500000e-001 -9.195544e-001  1.694175e-001
      vertex  2.500000e-001 -7.609873e-001 -7.159374e-001
      vertex  2.500000e-001 -6.769508e-001  6.753711e-002
    endloop
  endfacet
  facet normal  1.000000e+000  0.000000e+000  0.000000e+000
    outer loop
      vertex  2.500000e-001 -6.769508e-001  6.753711e-002
      vertex  2.500000e-001 -7.609873e-001 -7.159374e-001
      vertex  2.500000e-001 -6.769508e-001 -7.159374e-001
    endloop
  endfacet
  facet normal  1.000000e+000  0.000000e+000  0.000000e+000
    outer loop
      vertex  2.500000e-001 -6.769508e-001  6.753711e-002
      vertex  2.500000e-001 -6.769508e-001 -7.159374e-001
      vertex  2.500000e-001 -5.929143e-001 -7.159374e-001
    endloop
  endfacet
  facet normal  1.000000e+000  0.000000e+000  0.000000e+000
    outer loop
      vertex  2.500000e-001 -4.343472e-001  1.694175e-001
      vertex  2.500000e-001 -4.343472e-001 -7.159374e-001
      vertex  2.500000e-001 -1.596741e-001  7.122046e-001
    endloop
  endfacet
  facet normal  1.000000e+000  0.000000e+000  0.000000e+000
    outer loop
      vertex  2.500000e-001 -1.596741e-001  7.122046e-001
      vertex  2.500000e-001 -4.343472e-001 -7.159374e-001
      vertex  2.500000e-001 -1.596741e-001 -7.159374e-001
    endloop
  endfacet
  facet normal -1.000000e+000  0.000000e+000  0.000000e+000
    outer loop
      vertex  0.000000e+000 -1.194227e+000 -7.159374e-001
      vertex  0.000000e+000 -1.194227e+000  7.122046e-001
      vertex  0.000000e+000 -9.195544e-001 -7.159374e-001
    endloop
  endfacet
  facet normal -1.000000e+000  0.000000e+000  0.000000e+000
    outer loop
      vertex  0.000000e+000 -9.195544e-001 -7.159374e-001
      vertex  0.000000e+000 -1.194227e+000  7.122046e-001
      vertex  0.000000e+000 -9.195544e-001  1.694175e-001
    endloop
  endfacet
  facet normal -1.000000e+000  -0.000000e+000  0.000000e+000
    outer loop
      vertex  0.000000e+000 -1.194227e+000  7.122046e-001
      vertex  0.000000e+000 -7.924108e-001  7.122046e-001
      vertex  0.000000e+000 -9.195544e-001  1.694175e-001
    endloop
  endfacet
  facet normal -1.000000e+000  0.000000e+000  0.000000e+000
    outer loop
      vertex  0.000000e+000 -9.195544e-001  1.694175e-001
      vertex  0.000000e+000 -7.924108e-001  7.122046e-001
      vertex  0.000000e+000 -6.769508e-001  6.753711e-002
    endloop
  endfacet
  facet normal -1.000000e+000  0.000000e+000  0.000000e+000
    outer loop
      vertex  0.000000e+000 -1.596741e-001  7.122046e-001
      vertex  0.000000e+000 -4.343472e-001  1.694175e-001
      vertex  0.000000e+000 -5.614908e-001  7.122046e-001
    endloop
  endfacet
  facet normal -1.000000e+000  0.000000e+000  -0.000000e+000
    outer loop
      vertex  0.000000e+000 -5.614908e-001  7.122046e-001
      vertex  0.000000e+000 -4.343472e-001  1.694175e-001
      vertex  0.000000e+000 -5.929143e-001 -7.159374e-001
    endloop
  endfacet
  facet normal -1.000000e+000  0.000000e+000  0.000000e+000
    outer loop
      vertex  0.000000e+000 -5.614908e-001  7.122046e-001
      vertex  0.000000e+000 -5.929143e-001 -7.159374e-001
      vertex  0.000000e+000 -6.769508e-001  6.753711e-002
    endloop
  endfacet
  facet normal -1.000000e+000  0.000000e+000  0.000000e+000
    outer loop
      vertex  0.000000e+000 -5.929143e-001 -7.159374e-001
      vertex  0.000000e+000 -6.769508e-001 -7.159374e-001
      vertex  0.000000e+000 -6.769508e-001  6.753711e-002
    endloop
  endfacet
  facet normal -1.000000e+000  0.000000e+000  -0.000000e+000
    outer loop
      vertex  0.000000e+000 -6.769508e-001  6.753711e-002
      vertex  0.000000e+000 -6.769508e-001 -7.159374e-001
      vertex  0.000000e+000 -7.609873e-001 -7.159374e-001
    endloop
  endfacet
  facet normal -1.000000e+000  0.000000e+000  0.000000e+000
    outer loop
      vertex  0.000000e+000 -6.769508e-001  6.753711e-002
      vertex  0.000000e+000 -7.609873e-001 -7.159374e-001
      vertex  0.000000e+000 -9.195544e-001  1.694175e-001
    endloop
  endfacet
  facet normal -1.000000e+000  0.000000e+000  0.000000e+000
    outer loop
      vertex  0.000000e+000 -4.343472e-001  1.694175e-001
      vertex  0.000000e+000 -1.596741e-001  7.122046e-001
      vertex  0.000000e+000 -4.343472e-001 -7.159374e-001
    endloop
  endfacet
  facet normal -1.000000e+000  0.000000e+000  0.000000e+000
    outer loop
      vertex  0.000000e+000 -4.343472e-001 -7.159374e-001
      vertex  0.000000e+000 -1.596741e-001  7.122046e-001
      vertex  0.000000e+000 -1.596741e-001 -7.159374e-001
    endloop
  endfacet
  facet normal  0.000000e+000 -9.843374e-001  1.762949e-001
    outer loop
      vertex  2.500000e-001 -6.769508e-001  6.753711e-002
      vertex  2.500000e-001 -5.614908e-001  7.122046e-001
      vertex  0.000000e+000 -6.769508e-001  6.753711e-002
    endloop
  endfacet
  facet normal  0.000000e+000 -9.843374e-001  1.762949e-001
    outer loop
      vertex  0.000000e+000 -6.769508e-001  6.753711e-002
      vertex  2.500000e-001 -5.614908e-001  7.122046e-001
      vertex  0.000000e+000 -5.614908e-001  7.122046e-001
    endloop
  endfacet
  facet normal  -0.000000e+000  0.000000e+000  1.000000e+000
    outer loop
      vertex  2.500000e-001 -1.596741e-001  7.122046e-001
      vertex  0.000000e+000 -1.596741e-001  7.122046e-001
      vertex  2.500000e-001 -5.614908e-001  7.122046e-001
    endloop
  endfacet
  facet normal  0.000000e+000  0.000000e+000  1.000000e+000
    outer loop
      vertex  2.500000e-001 -5.614908e-001  7.122046e-001
      vertex  0.000000e+000 -1.596741e-001  7.122046e-001
      vertex  0.000000e+000 -5.614908e-001  7.122046e-001
    endloop
  endfacet
  facet normal  0.000000e+000  1.000000e+000  -0.000000e+000
    outer loop
      vertex  2.500000e-001 -1.596741e-001  7.122046e-001
      vertex  2.500000e-001 -1.596741e-001 -7.159374e-001
      vertex  0.000000e+000 -1.596741e-001  7.122046e-001
    endloop
  endfacet
  facet normal  0.000000e+000  1.000000e+000  0.000000e+000
    outer loop
      vertex  0.000000e+000 -1.596741e-001  7.122046e-001
      vertex  2.500000e-001 -1.596741e-001 -7.159374e-001
      vertex  0.000000e+000 -1.596741e-001 -7.159374e-001
    endloop
  endfacet
  facet normal  0.000000e+000  0.000000e+000 -9.999999e-001
    outer loop
      vertex  2.500000e-001 -4.343472e-001 -7.159374e-001
      vertex  0.000000e+000 -4.343472e-001 -7.159374e-001
      vertex  2.500000e-001 -1.596741e-001 -7.159374e-001
    endloop
  endfacet
  facet normal  -0.000000e+000  0.000000e+000 -9.999999e-001
    outer loop
      vertex  2.500000e-001 -1.596741e-001 -7.159374e-001
      vertex  0.000000e+000 -4.343472e-001 -7.159374e-001
      vertex  0.000000e+000 -1.596741e-001 -7.159374e-001
    endloop
  endfacet
  facet normal  0.000000e+000 -1.000000e+000  -0.000000e+000
    outer loop
      vertex  2.500000e-001 -4.343472e-001 -7.159374e-001
      vertex  2.500000e-001 -4.343472e-001  1.694175e-001
      vertex  0.000000e+000 -4.343472e-001 -7.159374e-001
    endloop
  endfacet
  facet normal  0.000000e+000 -1.000000e+000  0.000000e+000
    outer loop
      vertex  0.000000e+000 -4.343472e-001 -7.159374e-001
      vertex  2.500000e-001 -4.343472e-001  1.694175e-001
      vertex  0.000000e+000 -4.343472e-001  1.694175e-001
    endloop
  endfacet
  facet normal  0.000000e+000  9.843374e-001 -1.762949e-001
    outer loop
      vertex  2.500000e-001 -4.343472e-001  1.694175e-001
      vertex  2.500000e-001 -5.929143e-001 -7.159374e-001
      vertex  0.000000e+000 -4.343472e-001  1.694175e-001
    endloop
  endfacet
  facet normal  0.000000e+000  9.843374e-001 -1.762949e-001
    outer loop
      vertex  0.000000e+000 -4.343472e-001  1.694175e-001
      vertex  2.500000e-001 -5.929143e-001 -7.159374e-001
      vertex  0.000000e+000 -5.929143e-001 -7.159374e-001
    endloop
  endfacet
  facet normal  0.000000e+000  0.000000e+000 -1.000000e+000
    outer loop
      vertex  2.500000e-001 -6.769508e-001 -7.159374e-001
      vertex  0.000000e+000 -6.769508e-001 -7.159374e-001
      vertex  2.500000e-001 -5.929143e-001 -7.159374e-001
    endloop
  endfacet
  facet normal  -0.000000e+000  0.000000e+000 -1.000000e+000
    outer loop
      vertex  2.500000e-001 -5.929143e-001 -7.159374e-001
      vertex  0.000000e+000 -6.769508e-001 -7.159374e-001
      vertex  0.000000e+000 -5.929143e-001 -7.159374e-001
    endloop
  endfacet
  facet normal  0.000000e+000  0.000000e+000 -1.000000e+000
    outer loop
      vertex  2.500000e-001 -7.609873e-001 -7.159374e-001
      vertex  0.000000e+000 -7.609873e-001 -7.159374e-001
      vertex  2.500000e-001 -6.769508e-001 -7.159374e-001
    endloop
  endfacet
  facet normal  -0.000000e+000  0.000000e+000 -1.000000e+000
    outer loop
      vertex  2.500000e-001 -6.769508e-001 -7.159374e-001
      vertex  0.000000e+000 -7.609873e-001 -7.159374e-001
      vertex  0.000000e+000 -6.769508e-001 -7.159374e-001
    endloop
  endfacet
  facet normal  0.000000e+000 -9.843374e-001 -1.762949e-001
    outer loop
      vertex  2.500000e-001 -9.195544e-001  1.694175e-001
      vertex  0.000000e+000 -9.195544e-001  1.694175e-001
      vertex  2.500000e-001 -7.609873e-001 -7.159374e-001
    endloop
  endfacet
  facet normal  -0.000000e+000 -9.843374e-001 -1.762949e-001
    outer loop
      vertex  2.500000e-001 -7.609873e-001 -7.159374e-001
      vertex  0.000000e+000 -9.195544e-001  1.694175e-001
      vertex  0.000000e+000 -7.609873e-001 -7.159374e-001
    endloop
  endfacet
  facet normal  0.000000e+000  1.000000e+000  0.000000e+000
    outer loop
      vertex  2.500000e-001 -9.195544e-001 -7.159374e-001
      vertex  0.000000e+000 -9.195544e-001 -7.159374e-001
      vertex  2.500000e-001 -9.195544e-001  1.694175e-001
    endloop
  endfacet
  facet normal  0.000000e+000  1.000000e+000  0.000000e+000
    outer loop
      vertex  2.500000e-001 -9.195544e-001  1.694175e-001
      vertex  0.000000e+000 -9.195544e-001 -7.159374e-001
      vertex  0.000000e+000 -9.195544e-001  1.694175e-001
    endloop
  endfacet
  facet normal  0.000000e+000  0.000000e+000 -1.000000e+000
    outer loop
      vertex  2.500000e-001 -1.194227e+000 -7.159374e-001
      vertex  0.000000e+000 -1.194227e+000 -7.159374e-001
      vertex  2.500000e-001 -9.195544e-001 -7.159374e-001
    endloop
  endfacet
  facet normal  -0.000000e+000  0.000000e+000 -1.000000e+000
    outer loop
      vertex  2.500000e-001 -9.195544e-001 -7.159374e-001
      vertex  0.000000e+000 -1.194227e+000 -7.159374e-001
      vertex  0.000000e+000 -9.195544e-001 -7.159374e-001
    endloop
  endfacet
  facet normal  0.000000e+000 -1.000000e+000  0.000000e+000
    outer loop
      vertex  2.500000e-001 -1.194227e+000  7.122046e-001
      vertex  0.000000e+000 -1.194227e+000  7.122046e-001
      vertex  2.500000e-001 -1.194227e+000 -7.159374e-001
    endloop
  endfacet
  facet normal  0.000000e+000 -1.000000e+000  0.000000e+000
    outer loop
      vertex  2.500000e-001 -1.194227e+000 -7.159374e-001
      vertex  0.000000e+000 -1.194227e+000  7.122046e-001
      vertex  0.000000e+000 -1.194227e+000 -7.159374e-001
    endloop
  endfacet
  facet normal  -0.000000e+000  0.000000e+000  1.000000e+000
    outer loop
      vertex  2.500000e-001 -7.924108e-001  7.122046e-001
      vertex  0.000000e+000 -7.924108e-001  7.122046e-001
      vertex  2.500000e-001 -1.194227e+000  7.122046e-001
    endloop
  endfacet
  facet normal  0.000000e+000  0.000000e+000  1.000000e+000
    outer loop
      vertex  2.500000e-001 -1.194227e+000  7.122046e-001
      vertex  0.000000e+000 -7.924108e-001  7.122046e-001
      vertex  0.000000e+000 -1.194227e+000  7.122046e-001
    endloop
  endfacet
  facet normal  -0.000000e+000  9.843374e-001  1.762949e-001
    outer loop
      vertex  2.500000e-001 -6.769508e-001  6.753711e-002
      vertex  0.000000e+000 -6.769508e-001  6.753711e-002
      vertex  2.500000e-001 -7.924108e-001  7.122046e-001
    endloop
  endfacet
  facet normal  0.000000e+000  9.843374e-001  1.762949e-001
    outer loop
      vertex  2.500000e-001 -7.924108e-001  7.122046e-001
      vertex  0.000000e+000 -6.769508e-001  6.753711e-002
      vertex  0.000000e+000 -7.924108e-001  7.122046e-001
    endloop
  endfacet
  facet normal  1.000000e+000  0.000000e+000  0.000000e+000
    outer loop
      vertex  2.500000e-001 -1.809643e+000 -3.783346e-001
      vertex  2.500000e-001 -1.809643e+000 -1.138518e-001
      vertex  2.500000e-001 -1.916819e+000 -3.783346e-001
    endloop
  endfacet
  facet normal  1.000000e+000  0.000000e+000  0.000000e+000
    outer loop
      vertex  2.500000e-001 -1.809643e+000 -3.783346e-001
      vertex  2.500000e-001 -1.702466e+000 -3.783346e-001
      vertex  2.500000e-001 -1.809643e+000 -1.138518e-001
    endloop
  endfacet
  facet normal  1.000000e+000  0.000000e+000  -0.000000e+000
    outer loop
      vertex  2.500000e-001 -2.264393e+000 -7.159374e-001
      vertex  2.500000e-001 -1.960929e+000 -7.159374e-001
      vertex  2.500000e-001 -1.916819e+000 -3.783346e-001
    endloop
  endfacet
  facet normal  1.000000e+000  0.000000e+000  -0.000000e+000
    outer loop
      vertex  2.500000e-001 -2.264393e+000 -7.159374e-001
      vertex  2.500000e-001 -1.916819e+000 -3.783346e-001
      vertex  2.500000e-001 -1.809643e+000 -1.138518e-001
    endloop
  endfacet
  facet normal  1.000000e+000  0.000000e+000  0.000000e+000
    outer loop
      vertex  2.500000e-001 -2.264393e+000 -7.159374e-001
      vertex  2.500000e-001 -1.809643e+000 -1.138518e-001
      vertex  2.500000e-001 -1.882263e+000 -1.138518e-001
    endloop
  endfacet
  facet normal  1.000000e+000  0.000000e+000  -0.000000e+000
    outer loop
      vertex  2.500000e-001 -2.264393e+000 -7.159374e-001
      vertex  2.500000e-001 -1.882263e+000 -1.138518e-001
      vertex  2.500000e-001 -1.809643e+000  4.419615e-001
    endloop
  endfacet
  facet normal  1.000000e+000  0.000000e+000  -0.000000e+000
    outer loop
      vertex  2.500000e-001 -2.264393e+000 -7.159374e-001
      vertex  2.500000e-001 -1.809643e+000  4.419615e-001
      vertex  2.500000e-001 -1.809643e+000  7.122046e-001
    endloop
  endfacet
  facet normal  1.000000e+000  0.000000e+000  0.000000e+000
    outer loop
      vertex  2.500000e-001 -2.264393e+000 -7.159374e-001
      vertex  2.500000e-001 -1.809643e+000  7.122046e-001
      vertex  2.500000e-001 -2.008612e+000  7.122046e-001
    endloop
  endfacet
  facet normal  1.000000e+000  0.000000e+000  0.000000e+000
    outer loop
      vertex  2.500000e-001 -1.354892e+000 -7.159374e-001
      vertex  2.500000e-001 -1.610673e+000  7.122046e-001
      vertex  2.500000e-001 -1.809643e+000  7.122046e-001
    endloop
  endfacet
  facet normal  1.000000e+000  0.000000e+000  0.000000e+000
    outer loop
      vertex  2.500000e-001 -1.354892e+000 -7.159374e-001
      vertex  2.500000e-001 -1.809643e+000  7.122046e-001
      vertex  2.500000e-001 -1.809643e+000  4.419615e-001
    endloop
  endfacet
  facet normal  1.000000e+000  0.000000e+000  0.000000e+000
    outer loop
      vertex  2.500000e-001 -1.354892e+000 -7.159374e-001
      vertex  2.500000e-001 -1.809643e+000  4.419615e-001
      vertex  2.500000e-001 -1.737022e+000 -1.138518e-001
    endloop
  endfacet
  facet normal  1.000000e+000  0.000000e+000  0.000000e+000
    outer loop
      vertex  2.500000e-001 -1.354892e+000 -7.159374e-001
      vertex  2.500000e-001 -1.737022e+000 -1.138518e-001
      vertex  2.500000e-001 -1.809643e+000 -1.138518e-001
    endloop
  endfacet
  facet normal  1.000000e+000  0.000000e+000  0.000000e+000
    outer loop
      vertex  2.500000e-001 -1.354892e+000 -7.159374e-001
      vertex  2.500000e-001 -1.809643e+000 -1.138518e-001
      vertex  2.500000e-001 -1.702466e+000 -3.783346e-001
    endloop
  endfacet
  facet normal  1.000000e+000  0.000000e+000  0.000000e+000
    outer loop
      vertex  2.500000e-001 -1.354892e+000 -7.159374e-001
      vertex  2.500000e-001 -1.702466e+000 -3.783346e-001
      vertex  2.500000e-001 -1.658356e+000 -7.159374e-001
    endloop
  endfacet
  facet normal -1.000000e+000  0.000000e+000  -0.000000e+000
    outer loop
      vertex  0.000000e+000 -1.916819e+000 -3.783346e-001
      vertex  0.000000e+000 -1.809643e+000 -1.138518e-001
      vertex  0.000000e+000 -1.809643e+000 -3.783346e-001
    endloop
  endfacet
  facet normal -1.000000e+000  0.000000e+000  0.000000e+000
    outer loop
      vertex  0.000000e+000 -1.809643e+000 -1.138518e-001
      vertex  0.000000e+000 -1.702466e+000 -3.783346e-001
      vertex  0.000000e+000 -1.809643e+000 -3.783346e-001
    endloop
  endfacet
  facet normal -1.000000e+000  0.000000e+000  -0.000000e+000
    outer loop
      vertex  0.000000e+000 -2.264393e+000 -7.159374e-001
      vertex  0.000000e+000 -2.008612e+000  7.122046e-001
      vertex  0.000000e+000 -1.809643e+000  7.122046e-001
    endloop
  endfacet
  facet normal -1.000000e+000  0.000000e+000  -0.000000e+000
    outer loop
      vertex  0.000000e+000 -2.264393e+000 -7.159374e-001
      vertex  0.000000e+000 -1.809643e+000  7.122046e-001
      vertex  0.000000e+000 -1.809643e+000  4.419615e-001
    endloop
  endfacet
  facet normal -1.000000e+000  0.000000e+000  0.000000e+000
    outer loop
      vertex  0.000000e+000 -2.264393e+000 -7.159374e-001
      vertex  0.000000e+000 -1.809643e+000  4.419615e-001
      vertex  0.000000e+000 -1.882263e+000 -1.138518e-001
    endloop
  endfacet
  facet normal -1.000000e+000  0.000000e+000  -0.000000e+000
    outer loop
      vertex  0.000000e+000 -2.264393e+000 -7.159374e-001
      vertex  0.000000e+000 -1.882263e+000 -1.138518e-001
      vertex  0.000000e+000 -1.809643e+000 -1.138518e-001
    endloop
  endfacet
  facet normal -1.000000e+000  0.000000e+000  0.000000e+000
    outer loop
      vertex  0.000000e+000 -2.264393e+000 -7.159374e-001
      vertex  0.000000e+000 -1.809643e+000 -1.138518e-001
      vertex  0.000000e+000 -1.916819e+000 -3.783346e-001
    endloop
  endfacet
  facet normal -1.000000e+000  0.000000e+000  0.000000e+000
    outer loop
      vertex  0.000000e+000 -2.264393e+000 -7.159374e-001
      vertex  0.000000e+000 -1.916819e+000 -3.783346e-001
      vertex  0.000000e+000 -1.960929e+000 -7.159374e-001
    endloop
  endfacet
  facet normal -1.000000e+000  0.000000e+000  0.000000e+000
    outer loop
      vertex  0.000000e+000 -1.354892e+000 -7.159374e-001
      vertex  0.000000e+000 -1.658356e+000 -7.159374e-001
      vertex  0.000000e+000 -1.702466e+000 -3.783346e-001
    endloop
  endfacet
  facet normal -1.000000e+000  0.000000e+000  0.000000e+000
    outer loop
      vertex  0.000000e+000 -1.354892e+000 -7.159374e-001
      vertex  0.000000e+000 -1.702466e+000 -3.783346e-001
      vertex  0.000000e+000 -1.809643e+000 -1.138518e-001
    endloop
  endfacet
  facet normal -1.000000e+000  0.000000e+000  0.000000e+000
    outer loop
      vertex  0.000000e+000 -1.354892e+000 -7.159374e-001
      vertex  0.000000e+000 -1.809643e+000 -1.138518e-001
      vertex  0.000000e+000 -1.737022e+000 -1.138518e-001
    endloop
  endfacet
  facet normal -1.000000e+000  0.000000e+000  0.000000e+000
    outer loop
      vertex  0.000000e+000 -1.354892e+000 -7.159374e-001
      vertex  0.000000e+000 -1.737022e+000 -1.138518e-001
      vertex  0.000000e+000 -1.809643e+000  4.419615e-001
    endloop
  endfacet
  facet normal -1.000000e+000  0.000000e+000  0.000000e+000
    outer loop
      vertex  0.000000e+000 -1.354892e+000 -7.159374e-001
      vertex  0.000000e+000 -1.809643e+000  4.419615e-001
      vertex  0.000000e+000 -1.809643e+000  7.122046e-001
    endloop
  endfacet
  facet normal -1.000000e+000  0.000000e+000  0.000000e+000
    outer loop
      vertex  0.000000e+000 -1.354892e+000 -7.159374e-001
      vertex  0.000000e+000 -1.809643e+000  7.122046e-001
      vertex  0.000000e+000 -1.610673e+000  7.122046e-001
    endloop
  endfacet
  facet normal  0.000000e+000  9.915722e-001 -1.295550e-001
    outer loop
      vertex  2.500000e-001 -1.809643e+000  4.419615e-001
      vertex  2.500000e-001 -1.882263e+000 -1.138518e-001
      vertex  0.000000e+000 -1.809643e+000  4.419615e-001
    endloop
  endfacet
  facet normal  0.000000e+000  9.915722e-001 -1.295550e-001
    outer loop
      vertex  0.000000e+000 -1.809643e+000  4.419615e-001
      vertex  2.500000e-001 -1.882263e+000 -1.138518e-001
      vertex  0.000000e+000 -1.882263e+000 -1.138518e-001
    endloop
  endfacet
  facet normal  0.000000e+000  0.000000e+000  1.000000e+000
    outer loop
      vertex  2.500000e-001 -1.882263e+000 -1.138518e-001
      vertex  2.500000e-001 -1.809643e+000 -1.138518e-001
      vertex  0.000000e+000 -1.882263e+000 -1.138518e-001
    endloop
  endfacet
  facet normal  0.000000e+000  0.000000e+000  1.000000e+000
    outer loop
      vertex  0.000000e+000 -1.882263e+000 -1.138518e-001
      vertex  2.500000e-001 -1.809643e+000 -1.138518e-001
      vertex  0.000000e+000 -1.809643e+000 -1.138518e-001
    endloop
  endfacet
  facet normal  0.000000e+000  0.000000e+000  1.000000e+000
    outer loop
      vertex  2.500000e-001 -1.809643e+000 -1.138518e-001
      vertex  2.500000e-001 -1.737022e+000 -1.138518e-001
      vertex  0.000000e+000 -1.809643e+000 -1.138518e-001
    endloop
  endfacet
  facet normal  0.000000e+000  0.000000e+000  1.000000e+000
    outer loop
      vertex  0.000000e+000 -1.809643e+000 -1.138518e-001
      vertex  2.500000e-001 -1.737022e+000 -1.138518e-001
      vertex  0.000000e+000 -1.737022e+000 -1.138518e-001
    endloop
  endfacet
  facet normal  0.000000e+000 -9.915722e-001 -1.295550e-001
    outer loop
      vertex  2.500000e-001 -1.809643e+000  4.419615e-001
      vertex  0.000000e+000 -1.809643e+000  4.419615e-001
      vertex  2.500000e-001 -1.737022e+000 -1.138518e-001
    endloop
  endfacet
  facet normal  -0.000000e+000 -9.915722e-001 -1.295550e-001
    outer loop
      vertex  2.500000e-001 -1.737022e+000 -1.138518e-001
      vertex  0.000000e+000 -1.809643e+000  4.419615e-001
      vertex  0.000000e+000 -1.737022e+000 -1.138518e-001
    endloop
  endfacet
  facet normal  0.000000e+000  0.000000e+000 -1.000000e+000
    outer loop
      vertex  2.500000e-001 -1.916819e+000 -3.783346e-001
      vertex  0.000000e+000 -1.916819e+000 -3.783346e-001
      vertex  2.500000e-001 -1.809643e+000 -3.783346e-001
    endloop
  endfacet
  facet normal  -0.000000e+000  0.000000e+000 -1.000000e+000
    outer loop
      vertex  2.500000e-001 -1.809643e+000 -3.783346e-001
      vertex  0.000000e+000 -1.916819e+000 -3.783346e-001
      vertex  0.000000e+000 -1.809643e+000 -3.783346e-001
    endloop
  endfacet
  facet normal  0.000000e+000  9.915723e-001 -1.295547e-001
    outer loop
      vertex  2.500000e-001 -1.916819e+000 -3.783346e-001
      vertex  2.500000e-001 -1.960929e+000 -7.159374e-001
      vertex  0.000000e+000 -1.916819e+000 -3.783346e-001
    endloop
  endfacet
  facet normal  0.000000e+000  9.915723e-001 -1.295547e-001
    outer loop
      vertex  0.000000e+000 -1.916819e+000 -3.783346e-001
      vertex  2.500000e-001 -1.960929e+000 -7.159374e-001
      vertex  0.000000e+000 -1.960929e+000 -7.159374e-001
    endloop
  endfacet
  facet normal  0.000000e+000  0.000000e+000 -1.000000e+000
    outer loop
      vertex  2.500000e-001 -2.264393e+000 -7.159374e-001
      vertex  0.000000e+000 -2.264393e+000 -7.159374e-001
      vertex  2.500000e-001 -1.960929e+000 -7.159374e-001
    endloop
  endfacet
  facet normal  -0.000000e+000  0.000000e+000 -1.000000e+000
    outer loop
      vertex  2.500000e-001 -1.960929e+000 -7.159374e-001
      vertex  0.000000e+000 -2.264393e+000 -7.159374e-001
      vertex  0.000000e+000 -1.960929e+000 -7.159374e-001
    endloop
  endfacet
  facet normal  0.000000e+000 -9.843374e-001  1.762950e-001
    outer loop
      vertex  2.500000e-001 -2.264393e+000 -7.159374e-001
      vertex  2.500000e-001 -2.008612e+000  7.122046e-001
      vertex  0.000000e+000 -2.264393e+000 -7.159374e-001
    endloop
  endfacet
  facet normal  0.000000e+000 -9.843374e-001  1.762950e-001
    outer loop
      vertex  0.000000e+000 -2.264393e+000 -7.159374e-001
      vertex  2.500000e-001 -2.008612e+000  7.122046e-001
      vertex  0.000000e+000 -2.008612e+000  7.122046e-001
    endloop
  endfacet
  facet normal  -0.000000e+000  0.000000e+000  1.000000e+000
    outer loop
      vertex  2.500000e-001 -1.809643e+000  7.122046e-001
      vertex  0.000000e+000 -1.809643e+000  7.122046e-001
      vertex  2.500000e-001 -2.008612e+000  7.122046e-001
    endloop
  endfacet
  facet normal  0.000000e+000  0.000000e+000  1.000000e+000
    outer loop
      vertex  2.500000e-001 -2.008612e+000  7.122046e-001
      vertex  0.000000e+000 -1.809643e+000  7.122046e-001
      vertex  0.000000e+000 -2.008612e+000  7.122046e-001
    endloop
  endfacet
  facet normal  -0.000000e+000  0.000000e+000  1.000000e+000
    outer loop
      vertex  2.500000e-001 -1.610673e+000  7.122046e-001
      vertex  0.000000e+000 -1.610673e+000  7.122046e-001
      vertex  2.500000e-001 -1.809643e+000  7.122046e-001
    endloop
  endfacet
  facet normal  0.000000e+000  0.000000e+000  1.000000e+000
    outer loop
      vertex  2.500000e-001 -1.809643e+000  7.122046e-001
      vertex  0.000000e+000 -1.610673e+000  7.122046e-001
      vertex  0.000000e+000 -1.809643e+000  7.122046e-001
    endloop
  endfacet
  facet normal  -0.000000e+000  9.843374e-001  1.762950e-001
    outer loop
      vertex  2.500000e-001 -1.354892e+000 -7.159374e-001
      vertex  0.000000e+000 -1.354892e+000 -7.159374e-001
      vertex  2.500000e-001 -1.610673e+000  7.122046e-001
    endloop
  endfacet
  facet normal  0.000000e+000  9.843374e-001  1.762950e-001
    outer loop
      vertex  2.500000e-001 -1.610673e+000  7.122046e-001
      vertex  0.000000e+000 -1.354892e+000 -7.159374e-001
      vertex  0.000000e+000 -1.610673e+000  7.122046e-001
    endloop
  endfacet
  facet normal  0.000000e+000  0.000000e+000 -1.000000e+000
    outer loop
      vertex  2.500000e-001 -1.658356e+000 -7.159374e-001
      vertex  0.000000e+000 -1.658356e+000 -7.159374e-001
      vertex  2.500000e-001 -1.354892e+000 -7.159374e-001
    endloop
  endfacet
  facet normal  -0.000000e+000  0.000000e+000 -1.000000e+000
    outer loop
      vertex  2.500000e-001 -1.354892e+000 -7.159374e-001
      vertex  0.000000e+000 -1.658356e+000 -7.159374e-001
      vertex  0.000000e+000 -1.354892e+000 -7.159374e-001
    endloop
  endfacet
  facet normal  0.000000e+000 -9.915723e-001 -1.295547e-001
    outer loop
      vertex  2.500000e-001 -1.702466e+000 -3.783346e-001
      vertex  0.000000e+000 -1.702466e+000 -3.783346e-001
      vertex  2.500000e-001 -1.658356e+000 -7.159374e-001
    endloop
  endfacet
  facet normal  -0.000000e+000 -9.915723e-001 -1.295547e-001
    outer loop
      vertex  2.500000e-001 -1.658356e+000 -7.159374e-001
      vertex  0.000000e+000 -1.702466e+000 -3.783346e-001
      vertex  0.000000e+000 -1.658356e+000 -7.159374e-001
    endloop
  endfacet
  facet normal  0.000000e+000  0.000000e+000 -1.000000e+000
    outer loop
      vertex  2.500000e-001 -1.809643e+000 -3.783346e-001
      vertex  0.000000e+000 -1.809643e+000 -3.783346e-001
      vertex  2.500000e-001 -1.702466e+000 -3.783346e-001
    endloop
  endfacet
  facet normal  -0.000000e+000  0.000000e+000 -1.000000e+000
    outer loop
      vertex  2.500000e-001 -1.702466e+000 -3.783346e-001
      vertex  0.000000e+000 -1.809643e+000 -3.783346e-001
      vertex  0.000000e+000 -1.702466e+000 -3.783346e-001
    endloop
  endfacet
  facet normal  1.000000e+000  -0.000000e+000  0.000000e+000
    outer loop
      vertex  2.500000e-001 -2.242382e+000  7.122046e-001
      vertex  2.500000e-001 -2.546427e+000  7.122046e-001
      vertex  2.500000e-001 -2.548802e+000 -2.514038e-001
    endloop
  endfacet
  facet normal  1.000000e+000  0.000000e+000  -0.000000e+000
    outer loop
      vertex  2.500000e-001 -2.548802e+000 -2.514038e-001
      vertex  2.500000e-001 -2.546427e+000  7.122046e-001
      vertex  2.500000e-001 -2.711191e+000  9.178918e-002
    endloop
  endfacet
  facet normal  1.000000e+000  0.000000e+000  0.000000e+000
    outer loop
      vertex  2.500000e-001 -2.548802e+000 -2.514038e-001
      vertex  2.500000e-001 -2.711191e+000  9.178918e-002
      vertex  2.500000e-001 -2.873579e+000 -2.514038e-001
    endloop
  endfacet
  facet normal  9.999999e-001  0.000000e+000  0.000000e+000
    outer loop
      vertex  2.500000e-001 -2.873579e+000 -2.514038e-001
      vertex  2.500000e-001 -2.873579e+000 -7.159374e-001
      vertex  2.500000e-001 -2.548802e+000 -2.514038e-001
    endloop
  endfacet
  facet normal  1.000000e+000  0.000000e+000  0.000000e+000
    outer loop
      vertex  2.500000e-001 -2.548802e+000 -2.514038e-001
      vertex  2.500000e-001 -2.873579e+000 -7.159374e-001
      vertex  2.500000e-001 -2.711191e+000 -7.159374e-001
    endloop
  endfacet
  facet normal  1.000000e+000  0.000000e+000  0.000000e+000
    outer loop
      vertex  2.500000e-001 -2.548802e+000 -2.514038e-001
      vertex  2.500000e-001 -2.711191e+000 -7.159374e-001
      vertex  2.500000e-001 -2.548802e+000 -7.159374e-001
    endloop
  endfacet
  facet normal  1.000000e+000  0.000000e+000  0.000000e+000
    outer loop
      vertex  2.500000e-001 -2.873579e+000 -2.514038e-001
      vertex  2.500000e-001 -2.711191e+000  9.178918e-002
      vertex  2.500000e-001 -3.179999e+000  7.122046e-001
    endloop
  endfacet
  facet normal  1.000000e+000  -0.000000e+000  0.000000e+000
    outer loop
      vertex  2.500000e-001 -3.179999e+000  7.122046e-001
      vertex  2.500000e-001 -2.711191e+000  9.178918e-002
      vertex  2.500000e-001 -2.875954e+000  7.122046e-001
    endloop
  endfacet
  facet normal -1.000000e+000  0.000000e+000  -0.000000e+000
    outer loop
      vertex  0.000000e+000 -2.873579e+000 -2.514038e-001
      vertex  0.000000e+000 -2.711191e+000  9.178918e-002
      vertex  0.000000e+000 -2.548802e+000 -2.514038e-001
    endloop
  endfacet
  facet normal -1.000000e+000  0.000000e+000  0.000000e+000
    outer loop
      vertex  0.000000e+000 -2.548802e+000 -2.514038e-001
      vertex  0.000000e+000 -2.711191e+000  9.178918e-002
      vertex  0.000000e+000 -2.546427e+000  7.122046e-001
    endloop
  endfacet
  facet normal -1.000000e+000  0.000000e+000  -0.000000e+000
    outer loop
      vertex  0.000000e+000 -2.548802e+000 -2.514038e-001
      vertex  0.000000e+000 -2.546427e+000  7.122046e-001
      vertex  0.000000e+000 -2.242382e+000  7.122046e-001
    endloop
  endfacet
  facet normal -1.000000e+000  0.000000e+000  0.000000e+000
    outer loop
      vertex  0.000000e+000 -2.548802e+000 -7.159374e-001
      vertex  0.000000e+000 -2.711191e+000 -7.159374e-001
      vertex  0.000000e+000 -2.548802e+000 -2.514038e-001
    endloop
  endfacet
  facet normal -1.000000e+000  0.000000e+000  0.000000e+000
    outer loop
      vertex  0.000000e+000 -2.548802e+000 -2.514038e-001
      vertex  0.000000e+000 -2.711191e+000 -7.159374e-001
      vertex  0.000000e+000 -2.873579e+000 -7.159374e-001
    endloop
  endfacet
  facet normal -9.999999e-001  0.000000e+000  0.000000e+000
    outer loop
      vertex  0.000000e+000 -2.548802e+000 -2.514038e-001
      vertex  0.000000e+000 -2.873579e+000 -7.159374e-001
      vertex  0.000000e+000 -2.873579e+000 -2.514038e-001
    endloop
  endfacet
  facet normal -1.000000e+000  0.000000e+000  0.000000e+000
    outer loop
      vertex  0.000000e+000 -2.873579e+000 -2.514038e-001
      vertex  0.000000e+000 -3.179999e+000  7.122046e-001
      vertex  0.000000e+000 -2.711191e+000  9.178918e-002
    endloop
  endfacet
  facet normal -9.999999e-001  0.000000e+000  0.000000e+000
    outer loop
      vertex  0.000000e+000 -2.711191e+000  9.178918e-002
      vertex  0.000000e+000 -3.179999e+000  7.122046e-001
      vertex  0.000000e+000 -2.875954e+000  7.122046e-001
    endloop
  endfacet
  facet normal  0.000000e+000 -9.664984e-001  2.566725e-001
    outer loop
      vertex  2.500000e-001 -2.711191e+000  9.178918e-002
      vertex  2.500000e-001 -2.546427e+000  7.122046e-001
      vertex  0.000000e+000 -2.711191e+000  9.178918e-002
    endloop
  endfacet
  facet normal  0.000000e+000 -9.664984e-001  2.566725e-001
    outer loop
      vertex  0.000000e+000 -2.711191e+000  9.178918e-002
      vertex  2.500000e-001 -2.546427e+000  7.122046e-001
      vertex  0.000000e+000 -2.546427e+000  7.122046e-001
    endloop
  endfacet
  facet normal  -0.000000e+000  0.000000e+000  1.000000e+000
    outer loop
      vertex  2.500000e-001 -2.242382e+000  7.122046e-001
      vertex  0.000000e+000 -2.242382e+000  7.122046e-001
      vertex  2.500000e-001 -2.546427e+000  7.122046e-001
    endloop
  endfacet
  facet normal  0.000000e+000  0.000000e+000  1.000000e+000
    outer loop
      vertex  2.500000e-001 -2.546427e+000  7.122046e-001
      vertex  0.000000e+000 -2.242382e+000  7.122046e-001
      vertex  0.000000e+000 -2.546427e+000  7.122046e-001
    endloop
  endfacet
  facet normal  0.000000e+000  9.529781e-001 -3.030393e-001
    outer loop
      vertex  2.500000e-001 -2.242382e+000  7.122046e-001
      vertex  2.500000e-001 -2.548802e+000 -2.514038e-001
      vertex  0.000000e+000 -2.242382e+000  7.122046e-001
    endloop
  endfacet
  facet normal  0.000000e+000  9.529781e-001 -3.030393e-001
    outer loop
      vertex  0.000000e+000 -2.242382e+000  7.122046e-001
      vertex  2.500000e-001 -2.548802e+000 -2.514038e-001
      vertex  0.000000e+000 -2.548802e+000 -2.514038e-001
    endloop
  endfacet
  facet normal  0.000000e+000  1.000000e+000  -0.000000e+000
    outer loop
      vertex  2.500000e-001 -2.548802e+000 -2.514038e-001
      vertex  2.500000e-001 -2.548802e+000 -7.159374e-001
      vertex  0.000000e+000 -2.548802e+000 -2.514038e-001
    endloop
  endfacet
  facet normal  0.000000e+000  1.000000e+000  0.000000e+000
    outer loop
      vertex  0.000000e+000 -2.548802e+000 -2.514038e-001
      vertex  2.500000e-001 -2.548802e+000 -7.159374e-001
      vertex  0.000000e+000 -2.548802e+000 -7.159374e-001
    endloop
  endfacet
  facet normal  0.000000e+000  0.000000e+000 -1.000000e+000
    outer loop
      vertex  2.500000e-001 -2.711191e+000 -7.159374e-001
      vertex  0.000000e+000 -2.711191e+000 -7.159374e-001
      vertex  2.500000e-001 -2.548802e+000 -7.159374e-001
    endloop
  endfacet
  facet normal  -0.000000e+000  0.000000e+000 -1.000000e+000
    outer loop
      vertex  2.500000e-001 -2.548802e+000 -7.159374e-001
      vertex  0.000000e+000 -2.711191e+000 -7.159374e-001
      vertex  0.000000e+000 -2.548802e+000 -7.159374e-001
    endloop
  endfacet
  facet normal  0.000000e+000  0.000000e+000 -9.999999e-001
    outer loop
      vertex  2.500000e-001 -2.873579e+000 -7.159374e-001
      vertex  0.000000e+000 -2.873579e+000 -7.159374e-001
      vertex  2.500000e-001 -2.711191e+000 -7.159374e-001
    endloop
  endfacet
  facet normal  -0.000000e+000  0.000000e+000 -9.999999e-001
    outer loop
      vertex  2.500000e-001 -2.711191e+000 -7.159374e-001
      vertex  0.000000e+000 -2.873579e+000 -7.159374e-001
      vertex  0.000000e+000 -2.711191e+000 -7.159374e-001
    endloop
  endfacet
  facet normal  0.000000e+000 -1.000000e+000  0.000000e+000
    outer loop
      vertex  2.500000e-001 -2.873579e+000 -2.514038e-001
      vertex  0.000000e+000 -2.873579e+000 -2.514038e-001
      vertex  2.500000e-001 -2.873579e+000 -7.159374e-001
    endloop
  endfacet
  facet normal  0.000000e+000 -1.000000e+000  0.000000e+000
    outer loop
      vertex  2.500000e-001 -2.873579e+000 -7.159374e-001
      vertex  0.000000e+000 -2.873579e+000 -2.514038e-001
      vertex  0.000000e+000 -2.873579e+000 -7.159374e-001
    endloop
  endfacet
  facet normal  0.000000e+000 -9.529781e-001 -3.030393e-001
    outer loop
      vertex  2.500000e-001 -3.179999e+000  7.122046e-001
      vertex  0.000000e+000 -3.179999e+000  7.122046e-001
      vertex  2.500000e-001 -2.873579e+000 -2.514038e-001
    endloop
  endfacet
  facet normal  -0.000000e+000 -9.529781e-001 -3.030393e-001
    outer loop
      vertex  2.500000e-001 -2.873579e+000 -2.514038e-001
      vertex  0.000000e+000 -3.179999e+000  7.122046e-001
      vertex  0.000000e+000 -2.873579e+000 -2.514038e-001
    endloop
  endfacet
  facet normal  -0.000000e+000  0.000000e+000  1.000000e+000
    outer loop
      vertex  2.500000e-001 -2.875954e+000  7.122046e-001
      vertex  0.000000e+000 -2.875954e+000  7.122046e-001
      vertex  2.500000e-001 -3.179999e+000  7.122046e-001
    endloop
  endfacet
  facet normal  0.000000e+000  0.000000e+000  1.000000e+000
    outer loop
      vertex  2.500000e-001 -3.179999e+000  7.122046e-001
      vertex  0.000000e+000 -2.875954e+000  7.122046e-001
      vertex  0.000000e+000 -3.179999e+000  7.122046e-001
    endloop
  endfacet
  facet normal  -0.000000e+000  9.664986e-001  2.566720e-001
    outer loop
      vertex  2.500000e-001 -2.711191e+000  9.178918e-002
      vertex  0.000000e+000 -2.711191e+000  9.178918e-002
      vertex  2.500000e-001 -2.875954e+000  7.122046e-001
    endloop
  endfacet
  facet normal  0.000000e+000  9.664986e-001  2.566720e-001
    outer loop
      vertex  2.500000e-001 -2.875954e+000  7.122046e-001
      vertex  0.000000e+000 -2.711191e+000  9.178918e-002
      vertex  0.000000e+000 -2.875954e+000  7.122046e-001
    endloop
  endfacet
endsolid CATIA STL
