# Blender v2.90.0 OBJ File: ''
# www.blender.org
mtllib yamaha_letters.mtl
o Yamaha
v 17.178827 2.639065 -1.616574
v 20.173122 2.542493 -7.424131
v 17.178827 2.527880 -7.423851
v 17.178827 2.691602 1.127494
v 17.178827 2.810934 7.360290
v 20.173122 2.825546 7.360010
v 15.883684 2.685282 1.127614
v 14.588550 2.626424 -1.616332
v 14.588550 2.515240 -7.423609
v 11.594255 2.500627 -7.423329
v 14.588550 2.678962 1.127736
v 15.883684 2.632745 -1.616453
v 11.594255 2.783680 7.360812
v 14.588550 2.798293 7.360532
v 17.191462 -0.060091 -7.374302
v 20.185757 -0.045479 -7.374582
v 17.191462 0.051093 -1.567025
v 17.191462 0.103631 1.177042
v 15.896318 0.097310 1.177163
v 20.185757 0.237574 7.409558
v 17.191462 0.222962 7.409838
v 14.601184 0.038453 -1.566783
v 15.896318 0.044773 -1.566904
v 14.601184 0.090990 1.177284
v 11.606890 -0.087344 -7.373780
v 14.601184 -0.072732 -7.374060
v 11.606890 0.195709 7.410360
v 14.601184 0.210321 7.410080
v 26.512972 2.789573 3.864550
v 26.512972 2.737153 1.126621
v 25.403284 2.784158 3.864653
v 27.622650 2.794988 3.864446
v 21.804577 2.833508 7.359857
v 24.946577 2.848841 7.359563
v 25.761070 2.733484 1.126691
v 26.512972 2.626993 -4.627164
v 26.512972 2.573431 -7.424724
v 24.452879 2.563378 -7.424531
v 31.221355 2.879462 7.358977
v 28.573055 2.583485 -7.424916
v 27.264862 2.740823 1.126551
v 28.079355 2.864129 7.359271
v 25.415918 0.196186 3.914202
v 26.525606 0.149182 1.176169
v 26.525606 0.201602 3.914098
v 27.635284 0.207017 3.913995
v 21.817211 0.245536 7.409406
v 24.465513 -0.024593 -7.374982
v 26.525606 -0.014540 -7.375175
v 26.525606 0.039021 -4.577616
v 25.773705 0.145513 1.176240
v 24.959211 0.260869 7.409112
v 31.233990 0.291491 7.408525
v 28.091990 0.276157 7.408819
v 27.277496 0.152851 1.176099
v 28.585690 -0.004487 -7.375368
v 5.244843 2.685783 3.866538
v 5.244843 2.633364 1.128609
v 4.135158 2.680368 3.866642
v 6.354527 2.691199 3.866434
v 0.536457 2.729718 7.361845
v 3.678454 2.745051 7.361552
v 4.492946 2.629694 1.128679
v 5.244842 2.523203 -4.625176
v 5.244842 2.469642 -7.422735
v 3.184751 2.459589 -7.422543
v 9.953227 2.775672 7.360965
v 7.304931 2.479695 -7.422928
v 5.996737 2.637033 1.128539
v 6.811232 2.760339 7.361259
v 4.147791 0.092396 3.916190
v 5.257477 0.045392 1.178158
v 5.257477 0.097812 3.916087
v 6.367161 0.103227 3.915983
v 0.549091 0.141746 7.411394
v 3.197385 -0.128383 -7.372994
v 5.257476 -0.118330 -7.373187
v 5.257476 -0.064768 -4.575627
v 4.505580 0.041723 1.178228
v 3.691088 0.157080 7.411100
v 9.965861 0.187701 7.410514
v 6.823866 0.172368 7.410808
v 6.009372 0.049061 1.178087
v 7.317565 -0.108276 -7.373379
v -11.797543 2.669527 7.362998
v -8.953642 2.683406 7.362733
v -11.797543 2.386474 -7.421142
v -8.953642 2.507931 -1.802470
v -7.637224 2.406777 -7.421531
v -6.441776 2.540382 -0.748038
v -5.571680 2.699910 7.362417
v -5.246328 2.418444 -7.421754
v -3.929911 2.532447 -1.802940
v -1.086005 2.438747 -7.422143
v -7.311872 2.691417 7.362579
v -6.441776 2.695664 7.362498
v -3.929911 2.707922 7.362263
v -1.086004 2.721800 7.361997
v -11.784908 0.081556 7.412547
v -11.784908 -0.201498 -7.371593
v -8.941008 0.095434 7.412282
v -8.941008 -0.080040 -1.752922
v -7.624590 -0.181195 -7.371982
v -6.429142 -0.047590 -0.698490
v -1.073371 -0.149225 -7.372595
v -3.917277 -0.055524 -1.753391
v -5.233694 -0.169527 -7.372206
v -5.559046 0.111938 7.411965
v -6.429142 0.107692 7.412046
v -7.299237 0.103446 7.412128
v -3.917277 0.119950 7.411812
v -1.073370 0.133829 7.411546
v -18.169428 2.571520 3.868727
v -18.169428 2.519101 1.130798
v -19.279104 2.566105 3.868831
v -17.059740 2.576936 3.868623
v -22.877811 2.615455 7.364035
v -19.735811 2.630788 7.363741
v -18.921318 2.515431 1.130868
v -18.169428 2.408940 -4.622987
v -18.169428 2.355379 -7.420547
v -20.229509 2.345325 -7.420354
v -13.461034 2.661409 7.363154
v -16.109335 2.365432 -7.420739
v -17.417526 2.522770 1.130728
v -16.603033 2.646076 7.363448
v -19.266470 -0.021867 3.918379
v -18.156794 -0.068871 1.180347
v -18.156794 -0.016451 3.918276
v -17.047106 -0.011036 3.918172
v -22.865177 0.027483 7.413583
v -20.216875 -0.242646 -7.370805
v -18.156794 -0.232593 -7.370998
v -18.156794 -0.179031 -4.573439
v -18.908684 -0.072540 1.180417
v -19.723177 0.042817 7.413290
v -13.448400 0.073438 7.412703
v -16.590399 0.058105 7.412996
v -17.404892 -0.065202 1.180276
v -16.096701 -0.222539 -7.371190
v -22.649914 2.333514 -7.420127
v -25.797930 2.318151 -7.419833
v -25.822519 2.509016 2.555454
v -27.503860 2.432791 -0.997127
v -29.185192 2.492605 2.555768
v -29.185192 2.584674 7.364624
v -27.503860 2.592879 7.364467
v -25.822519 2.601084 7.364310
v -32.357800 2.286139 -7.419220
v -29.209782 2.301501 -7.419514
v -29.172558 -0.095366 2.605316
v -27.491226 -0.155181 -0.947578
v -25.809885 -0.078956 2.605002
v -25.785295 -0.269820 -7.370285
v -22.637280 -0.254458 -7.370579
v -25.809885 0.013113 7.413858
v -27.491226 0.004908 7.414016
v -29.172558 -0.003297 7.414173
v -32.345165 -0.301833 -7.369671
v -29.197147 -0.286470 -7.369966
vn -0.0049 0.9998 -0.0191
vn 0.0049 -0.9998 0.0191
vn 0.0000 -0.0191 -0.9998
vn -1.0000 -0.0049 0.0001
vn 1.0000 0.0049 -0.0001
vn 0.0000 0.0191 0.9998
vn 0.9916 0.0073 0.1294
vn -0.9916 -0.0024 0.1296
vn -0.9843 -0.0082 -0.1762
vn 0.9843 0.0014 -0.1764
vn 0.9843 0.0082 0.1762
vn -0.9843 -0.0014 0.1764
vn -0.9665 -0.0096 -0.2565
vn 0.9530 0.0105 0.3029
vn -0.9530 0.0011 0.3031
vn -0.9530 0.0012 0.3031
vn 0.9665 -0.0002 -0.2567
usemtl None
s off
f 1//1 2//1 3//1
f 4//1 5//1 6//1
f 4//1 6//1 2//1
f 4//1 2//1 1//1
f 4//1 1//1 7//1
f 8//1 9//1 10//1
f 8//1 10//1 11//1
f 8//1 11//1 12//1
f 12//1 11//1 1//1
f 1//1 11//1 7//1
f 13//1 14//1 10//1
f 10//1 14//1 11//1
f 15//2 16//2 17//2
f 18//2 19//2 17//2
f 18//2 17//2 16//2
f 18//2 16//2 20//2
f 18//2 20//2 21//2
f 22//2 23//2 24//2
f 22//2 24//2 25//2
f 22//2 25//2 26//2
f 23//2 17//2 24//2
f 24//2 17//2 19//2
f 27//2 25//2 28//2
f 28//2 25//2 24//2
f 1//3 17//3 12//3
f 12//3 17//3 23//3
f 1//4 3//4 17//4
f 17//4 3//4 15//4
f 2//3 16//3 3//3
f 3//3 16//3 15//3
f 2//5 6//5 16//5
f 16//5 6//5 20//5
f 5//6 21//6 6//6
f 6//6 21//6 20//6
f 5//4 4//4 21//4
f 21//4 4//4 18//4
f 7//6 19//6 4//6
f 4//6 19//6 18//6
f 11//6 24//6 7//6
f 7//6 24//6 19//6
f 14//5 28//5 11//5
f 11//5 28//5 24//5
f 13//6 27//6 14//6
f 14//6 27//6 28//6
f 10//4 25//4 13//4
f 13//4 25//4 27//4
f 9//3 26//3 10//3
f 10//3 26//3 25//3
f 8//5 22//5 9//5
f 9//5 22//5 26//5
f 12//3 23//3 8//3
f 8//3 23//3 22//3
f 29//1 30//1 31//1
f 29//1 32//1 30//1
f 33//1 34//1 31//1
f 33//1 31//1 30//1
f 33//1 30//1 35//1
f 33//1 35//1 36//1
f 33//1 36//1 37//1
f 33//1 37//1 38//1
f 39//1 40//1 37//1
f 39//1 37//1 36//1
f 39//1 36//1 41//1
f 39//1 41//1 30//1
f 39//1 30//1 32//1
f 39//1 32//1 42//1
f 43//2 44//2 45//2
f 44//2 46//2 45//2
f 47//2 48//2 49//2
f 47//2 49//2 50//2
f 47//2 50//2 51//2
f 47//2 51//2 44//2
f 47//2 44//2 43//2
f 47//2 43//2 52//2
f 53//2 54//2 46//2
f 53//2 46//2 44//2
f 53//2 44//2 55//2
f 53//2 55//2 50//2
f 53//2 50//2 49//2
f 53//2 49//2 56//2
f 36//7 35//7 50//7
f 50//7 35//7 51//7
f 35//3 30//3 51//3
f 51//3 30//3 44//3
f 30//3 41//3 44//3
f 44//3 41//3 55//3
f 36//8 50//8 41//8
f 41//8 50//8 55//8
f 33//9 38//9 47//9
f 47//9 38//9 48//9
f 37//3 49//3 38//3
f 38//3 49//3 48//3
f 40//3 56//3 37//3
f 37//3 56//3 49//3
f 39//10 53//10 40//10
f 40//10 53//10 56//10
f 42//6 54//6 39//6
f 39//6 54//6 53//6
f 32//8 46//8 42//8
f 42//8 46//8 54//8
f 29//6 45//6 32//6
f 32//6 45//6 46//6
f 31//6 43//6 29//6
f 29//6 43//6 45//6
f 31//7 34//7 43//7
f 43//7 34//7 52//7
f 33//6 47//6 34//6
f 34//6 47//6 52//6
f 57//1 58//1 59//1
f 57//1 60//1 58//1
f 61//1 62//1 59//1
f 61//1 59//1 58//1
f 61//1 58//1 63//1
f 61//1 63//1 64//1
f 61//1 64//1 65//1
f 61//1 65//1 66//1
f 67//1 68//1 65//1
f 67//1 65//1 64//1
f 67//1 64//1 69//1
f 67//1 69//1 58//1
f 67//1 58//1 60//1
f 67//1 60//1 70//1
f 71//2 72//2 73//2
f 72//2 74//2 73//2
f 75//2 76//2 77//2
f 75//2 77//2 78//2
f 75//2 78//2 79//2
f 75//2 79//2 72//2
f 75//2 72//2 71//2
f 75//2 71//2 80//2
f 81//2 82//2 74//2
f 81//2 74//2 72//2
f 81//2 72//2 83//2
f 81//2 83//2 78//2
f 81//2 78//2 77//2
f 81//2 77//2 84//2
f 64//7 63//7 78//7
f 78//7 63//7 79//7
f 63//3 58//3 79//3
f 79//3 58//3 72//3
f 58//3 69//3 72//3
f 72//3 69//3 83//3
f 64//8 78//8 69//8
f 69//8 78//8 83//8
f 61//9 66//9 75//9
f 75//9 66//9 76//9
f 65//3 77//3 66//3
f 66//3 77//3 76//3
f 68//3 84//3 65//3
f 65//3 84//3 77//3
f 67//10 81//10 68//10
f 68//10 81//10 84//10
f 70//6 82//6 67//6
f 67//6 82//6 81//6
f 60//8 74//8 70//8
f 70//8 74//8 82//8
f 57//6 73//6 60//6
f 60//6 73//6 74//6
f 59//6 71//6 57//6
f 57//6 71//6 73//6
f 59//7 62//7 71//7
f 71//7 62//7 80//7
f 61//6 75//6 62//6
f 62//6 75//6 80//6
f 85//1 86//1 87//1
f 87//1 86//1 88//1
f 87//1 88//1 89//1
f 89//1 88//1 90//1
f 90//1 91//1 92//1
f 92//1 91//1 93//1
f 92//1 93//1 94//1
f 88//1 95//1 90//1
f 90//1 95//1 96//1
f 90//1 96//1 91//1
f 93//1 97//1 94//1
f 94//1 97//1 98//1
f 99//2 100//2 101//2
f 101//2 100//2 102//2
f 100//2 103//2 102//2
f 102//2 103//2 104//2
f 105//2 106//2 107//2
f 107//2 106//2 108//2
f 107//2 108//2 104//2
f 108//2 109//2 104//2
f 104//2 109//2 110//2
f 104//2 110//2 102//2
f 106//2 105//2 111//2
f 111//2 105//2 112//2
f 90//9 92//9 104//9
f 104//9 92//9 107//9
f 94//3 105//3 92//3
f 92//3 105//3 107//3
f 94//5 98//5 105//5
f 105//5 98//5 112//5
f 97//6 111//6 98//6
f 98//6 111//6 112//6
f 97//4 93//4 111//4
f 111//4 93//4 106//4
f 93//11 91//11 106//11
f 106//11 91//11 108//11
f 96//6 109//6 91//6
f 91//6 109//6 108//6
f 95//6 110//6 96//6
f 96//6 110//6 109//6
f 88//12 102//12 95//12
f 95//12 102//12 110//12
f 86//5 101//5 88//5
f 88//5 101//5 102//5
f 85//6 99//6 86//6
f 86//6 99//6 101//6
f 87//4 100//4 85//4
f 85//4 100//4 99//4
f 89//3 103//3 87//3
f 87//3 103//3 100//3
f 90//10 104//10 89//10
f 89//10 104//10 103//10
f 113//1 114//1 115//1
f 113//1 116//1 114//1
f 117//1 118//1 115//1
f 117//1 115//1 114//1
f 117//1 114//1 119//1
f 117//1 119//1 120//1
f 117//1 120//1 121//1
f 117//1 121//1 122//1
f 123//1 124//1 121//1
f 123//1 121//1 120//1
f 123//1 120//1 125//1
f 123//1 125//1 114//1
f 123//1 114//1 116//1
f 123//1 116//1 126//1
f 127//2 128//2 129//2
f 128//2 130//2 129//2
f 131//2 132//2 133//2
f 131//2 133//2 134//2
f 131//2 134//2 135//2
f 131//2 135//2 128//2
f 131//2 128//2 127//2
f 131//2 127//2 136//2
f 137//2 138//2 130//2
f 137//2 130//2 128//2
f 137//2 128//2 139//2
f 137//2 139//2 134//2
f 137//2 134//2 133//2
f 137//2 133//2 140//2
f 120//7 119//7 134//7
f 134//7 119//7 135//7
f 119//3 114//3 135//3
f 135//3 114//3 128//3
f 114//3 125//3 128//3
f 128//3 125//3 139//3
f 120//8 134//8 125//8
f 125//8 134//8 139//8
f 115//6 127//6 113//6
f 113//6 127//6 129//6
f 115//7 118//7 127//7
f 127//7 118//7 136//7
f 117//6 131//6 118//6
f 118//6 131//6 136//6
f 117//9 122//9 131//9
f 131//9 122//9 132//9
f 121//3 133//3 122//3
f 122//3 133//3 132//3
f 124//3 140//3 121//3
f 121//3 140//3 133//3
f 123//10 137//10 124//10
f 124//10 137//10 140//10
f 126//6 138//6 123//6
f 123//6 138//6 137//6
f 116//8 130//8 126//8
f 126//8 130//8 138//8
f 113//6 129//6 116//6
f 116//6 129//6 130//6
f 141//1 142//1 143//1
f 143//1 142//1 144//1
f 143//1 144//1 145//1
f 145//1 146//1 143//1
f 143//1 146//1 147//1
f 143//1 147//1 148//1
f 145//1 144//1 149//1
f 149//1 144//1 150//1
f 151//2 152//2 153//2
f 153//2 152//2 154//2
f 153//2 154//2 155//2
f 156//2 157//2 153//2
f 153//2 157//2 158//2
f 153//2 158//2 151//2
f 151//2 159//2 152//2
f 152//2 159//2 160//2
f 144//13 142//13 152//13
f 152//13 142//13 154//13
f 141//3 155//3 142//3
f 142//3 155//3 154//3
f 141//14 143//14 155//14
f 155//14 143//14 153//14
f 143//5 148//5 153//5
f 153//5 148//5 156//5
f 147//6 157//6 148//6
f 148//6 157//6 156//6
f 146//6 158//6 147//6
f 147//6 158//6 157//6
f 145//4 151//4 146//4
f 146//4 151//4 158//4
f 149//15 159//15 145//15
f 145//16 159//16 151//16
f 150//3 160//3 149//3
f 149//3 160//3 159//3
f 144//17 152//17 150//17
f 150//17 152//17 160//17
