# Blender v2.83 (sub 11) OBJ File: ''
# www.blender.org
mtllib Yamaha.mtl
o Cube
v 1.000000 1.000000 -1.000000
v 1.000000 -1.000000 -1.000000
v 1.000000 1.000000 1.000000
v 1.000000 -1.000000 1.000000
v -1.000000 1.000000 -1.000000
v -1.000000 -1.000000 -1.000000
v -1.000000 1.000000 1.000000
v -1.000000 -1.000000 1.000000
vt 0.625000 0.500000
vt 0.875000 0.500000
vt 0.875000 0.750000
vt 0.625000 0.750000
vt 0.375000 0.750000
vt 0.625000 1.000000
vt 0.375000 1.000000
vt 0.375000 0.000000
vt 0.625000 0.000000
vt 0.625000 0.250000
vt 0.375000 0.250000
vt 0.125000 0.500000
vt 0.375000 0.500000
vt 0.125000 0.750000
vn 0.0000 1.0000 0.0000
vn 0.0000 0.0000 1.0000
vn -1.0000 0.0000 0.0000
vn 0.0000 -1.0000 0.0000
vn 1.0000 0.0000 0.0000
vn 0.0000 0.0000 -1.0000
usemtl Material
s off
f 1/1/1 5/2/1 7/3/1 3/4/1
f 4/5/2 3/4/2 7/6/2 8/7/2
f 8/8/3 7/9/3 5/10/3 6/11/3
f 6/12/4 2/13/4 4/5/4 8/14/4
f 2/13/5 1/1/5 3/4/5 4/5/5
f 6/11/6 5/10/6 1/1/6 2/13/6
o Yamaha
v 0.456846 0.111241 -1.561532
v 0.235437 0.560312 -1.945781
v 0.177543 0.586902 -1.663688
v 0.588823 -0.113519 -1.513261
v 0.888593 -0.624033 -1.403620
v 0.946487 -0.650622 -1.685714
v 0.563782 -0.102018 -1.391245
v 0.406764 0.134243 -1.317501
v 0.127460 0.609903 -1.419657
v 0.069566 0.636492 -1.137563
v 0.538741 -0.090518 -1.269230
v 0.431805 0.122742 -1.439516
v 0.780616 -0.574442 -0.877495
v 0.838510 -0.601031 -1.159589
v -0.033413 0.456374 -1.694679
v 0.024481 0.429785 -1.976773
v 0.245891 -0.019286 -1.592523
v 0.377868 -0.244046 -1.544253
v 0.352827 -0.232545 -1.422236
v 0.735531 -0.781149 -1.716705
v 0.677637 -0.754560 -1.434611
v 0.195808 0.003716 -1.348492
v 0.220849 -0.007785 -1.470507
v 0.327785 -0.221045 -1.300221
v -0.141390 0.505965 -1.168555
v -0.083495 0.479376 -1.450648
v 0.569660 -0.704969 -0.908487
v 0.627554 -0.731558 -1.190580
v 0.900980 -0.420663 -2.344471
v 0.769298 -0.196406 -2.392634
v 0.879524 -0.410809 -2.239927
v 0.922435 -0.430517 -2.449014
v 0.978031 -0.665109 -1.839413
v 1.038781 -0.693010 -2.135422
v 0.754760 -0.189729 -2.321797
v 0.492567 0.274873 -2.493849
v 0.358017 0.504015 -2.543061
v 0.318185 0.522308 -2.348979
v 1.160103 -0.748730 -2.726572
v 0.397848 0.485721 -2.737142
v 0.783835 -0.203083 -2.463470
v 1.099353 -0.720829 -2.430563
v 0.668568 -0.541336 -2.270919
v 0.558342 -0.326933 -2.423626
v 0.690024 -0.551190 -2.375463
v 0.711480 -0.561044 -2.480006
v 0.767075 -0.795636 -1.870405
v 0.107230 0.391781 -2.379970
v 0.147061 0.373488 -2.574052
v 0.281611 0.144346 -2.524841
v 0.543804 -0.320256 -2.352789
v 0.827825 -0.823537 -2.166414
v 0.949147 -0.879257 -2.757563
v 0.888397 -0.851356 -2.461554
v 0.572880 -0.333610 -2.494462
v 0.186893 0.355194 -2.768133
v 0.489763 -0.231803 -0.340793
v 0.358082 -0.007546 -0.388956
v 0.468308 -0.221949 -0.236249
v 0.511219 -0.241657 -0.445337
v 0.566815 -0.476249 0.164264
v 0.627565 -0.504150 -0.131745
v 0.343544 -0.000869 -0.318119
v 0.081351 0.463733 -0.490171
v -0.053199 0.692875 -0.539383
v -0.093031 0.711168 -0.345301
v 0.748887 -0.559870 -0.722893
v -0.013368 0.674581 -0.733464
v 0.372619 -0.014223 -0.459792
v 0.688137 -0.531969 -0.426885
v 0.257352 -0.352476 -0.267241
v 0.147126 -0.138073 -0.419947
v 0.278808 -0.362330 -0.371784
v 0.300264 -0.372184 -0.476328
v 0.355859 -0.606777 0.133273
v -0.303986 0.580641 -0.376292
v -0.264155 0.562348 -0.570374
v -0.129605 0.333206 -0.521162
v 0.132588 -0.131396 -0.349111
v 0.416609 -0.634677 -0.162736
v 0.537931 -0.690397 -0.753885
v 0.477181 -0.662496 -0.457876
v 0.161664 -0.144750 -0.490784
v -0.224323 0.544054 -0.764456
v 0.328339 -0.366724 1.326255
v 0.383325 -0.391978 1.058330
v -0.382711 0.844210 1.066187
v -0.057479 0.358723 0.897105
v -0.302272 0.807267 0.674242
v 0.041812 0.250032 0.679014
v 0.448715 -0.422009 0.739714
v -0.256044 0.786036 0.448995
v 0.039654 0.314112 0.423817
v -0.175605 0.749092 0.057049
v 0.415068 -0.406557 0.903658
v 0.431892 -0.414283 0.821686
v 0.480458 -0.436588 0.585042
v 0.535445 -0.461842 0.317117
v 0.117383 -0.497251 1.295263
v -0.593667 0.713683 1.035195
v 0.172370 -0.522505 1.027338
v -0.268435 0.228195 0.866113
v -0.513228 0.676740 0.643250
v -0.169144 0.119505 0.648022
v -0.386561 0.618565 0.026057
v -0.171302 0.183585 0.392826
v -0.467000 0.655509 0.418003
v 0.237759 -0.552537 0.708722
v 0.220936 -0.544810 0.790695
v 0.204113 -0.537084 0.872667
v 0.269503 -0.567115 0.554051
v 0.324489 -0.592369 0.286125
v 0.037052 -0.023886 1.865074
v -0.094630 0.200372 1.816911
v 0.015597 -0.014032 1.969617
v 0.058508 -0.033740 1.760530
v 0.114103 -0.268332 2.370131
v 0.174853 -0.296233 2.074122
v -0.109168 0.207048 1.887747
v -0.371361 0.671651 1.715696
v -0.505911 0.900792 1.666485
v -0.545742 0.919086 1.860566
v 0.296175 -0.351952 1.482973
v -0.466079 0.882499 1.472402
v -0.080092 0.193695 1.746074
v 0.235425 -0.324052 1.778982
v -0.195359 -0.144559 1.938626
v -0.305585 0.069845 1.785920
v -0.173903 -0.154413 1.834083
v -0.152448 -0.164267 1.729539
v -0.096852 -0.398859 2.339139
v -0.756698 0.788559 1.829574
v -0.716866 0.770265 1.635493
v -0.582316 0.541124 1.684705
v -0.320123 0.076521 1.856756
v -0.036102 -0.426760 2.043130
v 0.085220 -0.482480 1.451981
v 0.024470 -0.454579 1.747990
v -0.291047 0.063168 1.715083
v -0.677035 0.751972 1.441411
v -0.592540 0.940579 2.088593
v -0.653407 0.968533 2.385169
v -0.174116 0.151699 2.562960
v -0.377495 0.457626 2.658864
v -0.239133 0.181560 2.879759
v -0.007849 -0.212323 2.964352
v 0.024659 -0.227253 2.805953
v 0.057168 -0.242183 2.647553
v -0.780241 1.026784 3.003176
v -0.719374 0.998830 2.706600
v -0.450089 0.051032 2.848768
v -0.588451 0.327099 2.627872
v -0.385072 0.021172 2.531969
v -0.864362 0.838006 2.354177
v -0.803496 0.810052 2.057601
v -0.153788 -0.372710 2.616561
v -0.186296 -0.357780 2.774961
v -0.218804 -0.342850 2.933360
v -0.991196 0.896257 2.972185
v -0.930330 0.868303 2.675609
vn 0.8438 0.5221 0.1240
vn -0.8438 -0.5221 -0.1240
vn -0.4979 0.8479 -0.1821
vn -0.2002 0.0919 0.9754
vn 0.2002 -0.0919 -0.9754
vn 0.4979 -0.8479 0.1821
vn 0.2630 -0.2010 -0.9436
vn -0.1340 -0.0187 0.9908
vn -0.2848 0.2400 0.9281
vn 0.1093 0.0590 -0.9923
vn 0.2848 -0.2400 -0.9281
vn -0.1093 -0.0590 0.9923
vn -0.3213 0.3065 0.8960
vn 0.3417 -0.3446 -0.8744
vn -0.0399 -0.1693 0.9848
vn 0.0657 0.1288 -0.9895
usemtl None
s off
f 9//7 10//7 11//7
f 12//7 13//7 14//7
f 12//7 14//7 10//7
f 12//7 10//7 9//7
f 12//7 9//7 15//7
f 16//7 17//7 18//7
f 16//7 18//7 19//7
f 16//7 19//7 20//7
f 20//7 19//7 9//7
f 9//7 19//7 15//7
f 21//7 22//7 18//7
f 18//7 22//7 19//7
f 23//8 24//8 25//8
f 26//8 27//8 25//8
f 26//8 25//8 24//8
f 26//8 24//8 28//8
f 26//8 28//8 29//8
f 30//8 31//8 32//8
f 30//8 32//8 33//8
f 30//8 33//8 34//8
f 31//8 25//8 32//8
f 32//8 25//8 27//8
f 35//8 33//8 36//8
f 36//8 33//8 32//8
f 9//9 25//9 20//9
f 20//9 25//9 31//9
f 9//10 11//10 25//10
f 25//10 11//10 23//10
f 10//9 24//9 11//9
f 11//9 24//9 23//9
f 10//11 14//11 24//11
f 24//11 14//11 28//11
f 13//12 29//12 14//12
f 14//12 29//12 28//12
f 13//10 12//10 29//10
f 29//10 12//10 26//10
f 15//12 27//12 12//12
f 12//12 27//12 26//12
f 19//12 32//12 15//12
f 15//12 32//12 27//12
f 22//11 36//11 19//11
f 19//11 36//11 32//11
f 21//12 35//12 22//12
f 22//12 35//12 36//12
f 18//10 33//10 21//10
f 21//10 33//10 35//10
f 17//9 34//9 18//9
f 18//9 34//9 33//9
f 16//11 30//11 17//11
f 17//11 30//11 34//11
f 20//9 31//9 16//9
f 16//9 31//9 30//9
f 37//7 38//7 39//7
f 37//7 40//7 38//7
f 41//7 42//7 39//7
f 41//7 39//7 38//7
f 41//7 38//7 43//7
f 41//7 43//7 44//7
f 41//7 44//7 45//7
f 41//7 45//7 46//7
f 47//7 48//7 45//7
f 47//7 45//7 44//7
f 47//7 44//7 49//7
f 47//7 49//7 38//7
f 47//7 38//7 40//7
f 47//7 40//7 50//7
f 51//8 52//8 53//8
f 52//8 54//8 53//8
f 55//8 56//8 57//8
f 55//8 57//8 58//8
f 55//8 58//8 59//8
f 55//8 59//8 52//8
f 55//8 52//8 51//8
f 55//8 51//8 60//8
f 61//8 62//8 54//8
f 61//8 54//8 52//8
f 61//8 52//8 63//8
f 61//8 63//8 58//8
f 61//8 58//8 57//8
f 61//8 57//8 64//8
f 44//13 43//13 58//13
f 58//13 43//13 59//13
f 43//9 38//9 59//9
f 59//9 38//9 52//9
f 38//9 49//9 52//9
f 52//9 49//9 63//9
f 44//14 58//14 49//14
f 49//14 58//14 63//14
f 41//15 46//15 55//15
f 55//15 46//15 56//15
f 45//9 57//9 46//9
f 46//9 57//9 56//9
f 48//9 64//9 45//9
f 45//9 64//9 57//9
f 47//16 61//16 48//16
f 48//16 61//16 64//16
f 50//12 62//12 47//12
f 47//12 62//12 61//12
f 40//14 54//14 50//14
f 50//14 54//14 62//14
f 37//12 53//12 40//12
f 40//12 53//12 54//12
f 39//12 51//12 37//12
f 37//12 51//12 53//12
f 39//13 42//13 51//13
f 51//13 42//13 60//13
f 41//12 55//12 42//12
f 42//12 55//12 60//12
f 65//7 66//7 67//7
f 65//7 68//7 66//7
f 69//7 70//7 67//7
f 69//7 67//7 66//7
f 69//7 66//7 71//7
f 69//7 71//7 72//7
f 69//7 72//7 73//7
f 69//7 73//7 74//7
f 75//7 76//7 73//7
f 75//7 73//7 72//7
f 75//7 72//7 77//7
f 75//7 77//7 66//7
f 75//7 66//7 68//7
f 75//7 68//7 78//7
f 79//8 80//8 81//8
f 80//8 82//8 81//8
f 83//8 84//8 85//8
f 83//8 85//8 86//8
f 83//8 86//8 87//8
f 83//8 87//8 80//8
f 83//8 80//8 79//8
f 83//8 79//8 88//8
f 89//8 90//8 82//8
f 89//8 82//8 80//8
f 89//8 80//8 91//8
f 89//8 91//8 86//8
f 89//8 86//8 85//8
f 89//8 85//8 92//8
f 72//13 71//13 86//13
f 86//13 71//13 87//13
f 71//9 66//9 87//9
f 87//9 66//9 80//9
f 66//9 77//9 80//9
f 80//9 77//9 91//9
f 72//14 86//14 77//14
f 77//14 86//14 91//14
f 69//15 74//15 83//15
f 83//15 74//15 84//15
f 73//9 85//9 74//9
f 74//9 85//9 84//9
f 76//9 92//9 73//9
f 73//9 92//9 85//9
f 75//16 89//16 76//16
f 76//16 89//16 92//16
f 78//12 90//12 75//12
f 75//12 90//12 89//12
f 68//14 82//14 78//14
f 78//14 82//14 90//14
f 65//12 81//12 68//12
f 68//12 81//12 82//12
f 67//12 79//12 65//12
f 65//12 79//12 81//12
f 67//13 70//13 79//13
f 79//13 70//13 88//13
f 69//12 83//12 70//12
f 70//12 83//12 88//12
f 93//7 94//7 95//7
f 95//7 94//7 96//7
f 95//7 96//7 97//7
f 97//7 96//7 98//7
f 98//7 99//7 100//7
f 100//7 99//7 101//7
f 100//7 101//7 102//7
f 96//7 103//7 98//7
f 98//7 103//7 104//7
f 98//7 104//7 99//7
f 101//7 105//7 102//7
f 102//7 105//7 106//7
f 107//8 108//8 109//8
f 109//8 108//8 110//8
f 108//8 111//8 110//8
f 110//8 111//8 112//8
f 113//8 114//8 115//8
f 115//8 114//8 116//8
f 115//8 116//8 112//8
f 116//8 117//8 112//8
f 112//8 117//8 118//8
f 112//8 118//8 110//8
f 114//8 113//8 119//8
f 119//8 113//8 120//8
f 98//15 100//15 112//15
f 112//15 100//15 115//15
f 102//9 113//9 100//9
f 100//9 113//9 115//9
f 102//11 106//11 113//11
f 113//11 106//11 120//11
f 105//12 119//12 106//12
f 106//12 119//12 120//12
f 105//10 101//10 119//10
f 119//10 101//10 114//10
f 101//17 99//17 114//17
f 114//17 99//17 116//17
f 104//12 117//12 99//12
f 99//12 117//12 116//12
f 103//12 118//12 104//12
f 104//12 118//12 117//12
f 96//18 110//18 103//18
f 103//18 110//18 118//18
f 94//11 109//11 96//11
f 96//11 109//11 110//11
f 93//12 107//12 94//12
f 94//12 107//12 109//12
f 95//10 108//10 93//10
f 93//10 108//10 107//10
f 97//9 111//9 95//9
f 95//9 111//9 108//9
f 98//16 112//16 97//16
f 97//16 112//16 111//16
f 121//7 122//7 123//7
f 121//7 124//7 122//7
f 125//7 126//7 123//7
f 125//7 123//7 122//7
f 125//7 122//7 127//7
f 125//7 127//7 128//7
f 125//7 128//7 129//7
f 125//7 129//7 130//7
f 131//7 132//7 129//7
f 131//7 129//7 128//7
f 131//7 128//7 133//7
f 131//7 133//7 122//7
f 131//7 122//7 124//7
f 131//7 124//7 134//7
f 135//8 136//8 137//8
f 136//8 138//8 137//8
f 139//8 140//8 141//8
f 139//8 141//8 142//8
f 139//8 142//8 143//8
f 139//8 143//8 136//8
f 139//8 136//8 135//8
f 139//8 135//8 144//8
f 145//8 146//8 138//8
f 145//8 138//8 136//8
f 145//8 136//8 147//8
f 145//8 147//8 142//8
f 145//8 142//8 141//8
f 145//8 141//8 148//8
f 128//13 127//13 142//13
f 142//13 127//13 143//13
f 127//9 122//9 143//9
f 143//9 122//9 136//9
f 122//9 133//9 136//9
f 136//9 133//9 147//9
f 128//14 142//14 133//14
f 133//14 142//14 147//14
f 123//12 135//12 121//12
f 121//12 135//12 137//12
f 123//13 126//13 135//13
f 135//13 126//13 144//13
f 125//12 139//12 126//12
f 126//12 139//12 144//12
f 125//15 130//15 139//15
f 139//15 130//15 140//15
f 129//9 141//9 130//9
f 130//9 141//9 140//9
f 132//9 148//9 129//9
f 129//9 148//9 141//9
f 131//16 145//16 132//16
f 132//16 145//16 148//16
f 134//12 146//12 131//12
f 131//12 146//12 145//12
f 124//14 138//14 134//14
f 134//14 138//14 146//14
f 121//12 137//12 124//12
f 124//12 137//12 138//12
f 149//7 150//7 151//7
f 151//7 150//7 152//7
f 151//7 152//7 153//7
f 153//7 154//7 151//7
f 151//7 154//7 155//7
f 151//7 155//7 156//7
f 153//7 152//7 157//7
f 157//7 152//7 158//7
f 159//8 160//8 161//8
f 161//8 160//8 162//8
f 161//8 162//8 163//8
f 164//8 165//8 161//8
f 161//8 165//8 166//8
f 161//8 166//8 159//8
f 159//8 167//8 160//8
f 160//8 167//8 168//8
f 152//19 150//19 160//19
f 160//19 150//19 162//19
f 149//9 163//9 150//9
f 150//9 163//9 162//9
f 149//20 151//20 163//20
f 163//20 151//20 161//20
f 151//11 156//11 161//11
f 161//11 156//11 164//11
f 155//12 165//12 156//12
f 156//12 165//12 164//12
f 154//12 166//12 155//12
f 155//12 166//12 165//12
f 153//10 159//10 154//10
f 154//10 159//10 166//10
f 157//21 167//21 153//21
f 153//21 167//21 159//21
f 158//9 168//9 157//9
f 157//9 168//9 167//9
f 152//22 160//22 158//22
f 158//22 160//22 168//22
